<svg opacity=".3" version="1.1" id="Layer_1" xmlns="http://www.w3.org/2000/svg" xmlns:xlink="http://www.w3.org/1999/xlink" x="0" y="0" viewBox="0 0 631.8 573.9" xml:space="preserve"><style>.st0{clip-path:url(#SVGID_2_)}.st1{fill:#010101}.st3{clip-path:url(#SVGID_6_)}.st5{clip-path:url(#SVGID_10_)}</style><g id="path4013_2_"><defs><path id="SVGID_1_" d="M479.4 514.5s4.1-4 3.3-4.6c-.8-.6-3.8 1.6-3.8 1.6s-.5.4-1.2.9l2.4-1.5s-.2 1.4-2.2 3.4c0 0-.6.6-1.6 1.5-5.8 5.7-14.5 12.2-14.5 12.2l2.4-1.3c8.2-5 15.2-12.2 15.2-12.2z"/></defs><use xlink:href="#SVGID_1_" overflow="visible" fill="#010101"/><clipPath id="SVGID_2_"><use xlink:href="#SVGID_1_" overflow="visible"/></clipPath><g class="st0"><path class="st1" d="M469.9 509.4l-8 2.6v-2.6z"/></g><g class="st0"><path class="st1" d="M478.1 509.4l-16.2 5.3V512l8-2.6z"/></g><g class="st0"><path class="st1" d="M483.5 510.3l-21.6 7.1v-2.7l16.2-5.3h5.4z"/></g><g class="st0"><path class="st1" d="M483.5 513l-21.6 7.1v-2.7l21.6-7.1z"/></g><g class="st0"><path class="st1" d="M483.5 515.7l-21.6 7.1v-2.7l21.6-7.1z"/></g><g class="st0"><path class="st1" d="M483.5 518.4l-21.6 7.1v-2.7l21.6-7.1z"/></g><g class="st0"><path class="st1" d="M483.5 521.2l-20.7 6.7h-.9v-2.4l21.6-7.1z"/></g><g class="st0"><path class="st1" d="M483.5 523.9l-12.4 4h-8.3l20.7-6.7z"/></g><g class="st0"><path class="st1" d="M483.5 526.6l-4.2 1.3h-8.2l12.4-4z"/></g><g class="st0"><path class="st1" d="M479.3 527.9l4.2-1.3v1.3z"/></g></g><g id="path4065_2_"><defs><path id="SVGID_3_" d="M259.9 557.2c5.7 1.1 10.5 2.2 11.5 2.4-2-.6-5.7-1.7-11.5-2.4z"/></defs><use xlink:href="#SVGID_3_" overflow="visible" fill="#010101"/><clipPath id="SVGID_4_"><use xlink:href="#SVGID_3_" overflow="visible"/></clipPath><g clip-path="url(#SVGID_4_)"><path class="st1" d="M259.9 557.2h11.5v2.4h-11.5z"/></g></g><g id="path4086_2_"><defs><path id="SVGID_5_" d="M278.7 565.2l2.4.3c-.7-.1-1.9-.3-3.4-.4.3 0 .6.1 1 .1z"/></defs><use xlink:href="#SVGID_5_" overflow="visible" fill="#010101"/><clipPath id="SVGID_6_"><use xlink:href="#SVGID_5_" overflow="visible"/></clipPath><g class="st3"><path class="st1" d="M281 565.5l-2.1-.5h2.1v.5z"/></g><g class="st3"><path class="st1" d="M281 565.5l-2.1-.5 2.1.5z"/></g><g class="st3"><path class="st1" d="M280.9 565.5l-2.1-.5h.1l2.1.5z"/></g><g class="st3"><path class="st1" d="M280.9 565.5l-2.1-.5 2.1.5z"/></g><g class="st3"><path class="st1" d="M280.8 565.5l-2.1-.5h.1l2.1.5z"/></g><g class="st3"><path class="st1" d="M280.8 565.5l-2.1-.5 2.1.5z"/></g><g class="st3"><path class="st1" d="M280.7 565.5l-2-.5 2.1.5z"/></g><g class="st3"><path class="st1" d="M280.7 565.5l-2.1-.5h.1l2 .5z"/></g><g class="st3"><path class="st1" d="M280.6 565.5l-2-.5 2.1.5z"/></g><g class="st3"><path class="st1" d="M280.6 565.5l-2.1-.5h.1l2 .5z"/></g><g class="st3"><path class="st1" d="M280.6 565.5l-2.1-.5 2.1.5z"/></g><g class="st3"><path class="st1" d="M280.5 565.5l-2.1-.5h.1l2.1.5z"/></g><g class="st3"><path class="st1" d="M280.5 565.5l-2.1-.5 2.1.5z"/></g><g class="st3"><path class="st1" d="M280.4 565.5l-2.1-.5h.1l2.1.5z"/></g><g class="st3"><path class="st1" d="M280.4 565.5l-2.1-.5 2.1.5z"/></g><g class="st3"><path class="st1" d="M280.3 565.5l-2.1-.5h.1l2.1.5z"/></g><g class="st3"><path class="st1" d="M280.3 565.5l-2.1-.5 2.1.5z"/></g><g class="st3"><path class="st1" d="M280.2 565.5l-2.1-.5h.1l2.1.5z"/></g><g class="st3"><path class="st1" d="M280.2 565.5l-2.1-.5 2.1.5z"/></g><g class="st3"><path class="st1" d="M280.1 565.5l-2.1-.5h.1l2.1.5z"/></g><g class="st3"><path class="st1" d="M280.1 565.5l-2.1-.5 2.1.5z"/></g><g class="st3"><path class="st1" d="M280 565.5l-2.1-.5h.1l2.1.5z"/></g><g class="st3"><path class="st1" d="M280 565.5l-2.1-.5 2.1.5z"/></g><g class="st3"><path class="st1" d="M279.9 565.5l-2-.5 2.1.5z"/></g><g class="st3"><path class="st1" d="M279.9 565.5l-2.1-.5h.1l2 .5z"/></g><g class="st3"><path class="st1" d="M279.9 565.5l-2.1-.5 2.1.5z"/></g><g class="st3"><path class="st1" d="M279.8 565.5l-2.1-.5h.1l2.1.5z"/></g><g class="st3"><path class="st1" d="M279.8 565.5l-2.1-.5 2.1.5z"/></g><g class="st3"><path class="st1" d="M279.7 565.5l-2.1-.5h.1l2.1.5z"/></g><g class="st3"><path class="st1" d="M277.6 565l2.1.5h-2.1z"/></g></g><g id="path4118_2_"><defs><path id="SVGID_7_" d="M241.3 556.7c2.3.7 4.1.4 4.8.2-4.1.2-8.2-1.7-8.2-1.7s-.4-.1-1-.4c1.5.8 3.2 1.5 4.4 1.9z"/></defs><use xlink:href="#SVGID_7_" overflow="visible" fill="#010101"/><clipPath id="SVGID_8_"><use xlink:href="#SVGID_7_" overflow="visible"/></clipPath><g clip-path="url(#SVGID_8_)"><path class="st1" d="M236.9 554.9h9.2v2.5h-9.2z"/></g></g><g id="path4246_2_"><defs><path id="SVGID_9_" d="M22.1 305.8z"/></defs><use xlink:href="#SVGID_9_" overflow="visible" fill="#010101"/><clipPath id="SVGID_10_"><use xlink:href="#SVGID_9_" overflow="visible"/></clipPath><g class="st5"><path class="st1" d="M22.1 305.8z"/></g><g class="st5"><path class="st1" d="M22.1 305.8z"/></g><g class="st5"><path class="st1" d="M22.1 305.8z"/></g><g class="st5"><path class="st1" d="M22.1 305.8z"/></g><g class="st5"><path class="st1" d="M22.1 305.8z"/></g><g class="st5"><path class="st1" d="M22.1 305.8z"/></g><g class="st5"><path class="st1" d="M22.1 305.8z"/></g><g class="st5"><path class="st1" d="M22.1 305.8z"/></g><g class="st5"><path class="st1" d="M22.1 305.8z"/></g><g class="st5"><path class="st1" d="M22.1 305.8z"/></g><g class="st5"><path class="st1" d="M22.1 305.8z"/></g><g class="st5"><path class="st1" d="M22.1 305.8z"/></g><g class="st5"><path class="st1" d="M22.1 305.8z"/></g><g class="st5"><path class="st1" d="M22.1 305.8z"/></g><g class="st5"><path class="st1" d="M22.1 305.8z"/></g><g class="st5"><path class="st1" d="M22.1 305.8z"/></g><g class="st5"><path class="st1" d="M22.1 305.8z"/></g><g class="st5"><path class="st1" d="M22.1 305.8z"/></g><g class="st5"><path class="st1" d="M22.1 305.8z"/></g><g class="st5"><path class="st1" d="M22.1 305.8z"/></g><g class="st5"><path class="st1" d="M22.1 305.8z"/></g><g class="st5"><path class="st1" d="M22.1 305.8z"/></g><g class="st5"><path class="st1" d="M22.1 305.8z"/></g><g class="st5"><path class="st1" d="M22.1 305.8z"/></g><g class="st5"><path class="st1" d="M22.1 305.8z"/></g><g class="st5"><path class="st1" d="M22.1 305.8z"/></g><g class="st5"><path class="st1" d="M22.1 305.8z"/></g><g class="st5"><path class="st1" d="M22.1 305.8z"/></g><g class="st5"><path class="st1" d="M22.1 305.8z"/></g><g class="st5"><path class="st1" d="M22.1 305.8z"/></g><g class="st5"><path class="st1" d="M22.1 305.8z"/></g><g class="st5"><path class="st1" d="M22.1 305.8z"/></g><g class="st5"><path class="st1" d="M22.1 305.8z"/></g><g class="st5"><path class="st1" d="M22.1 305.8z"/></g><g class="st5"><path class="st1" d="M22.1 305.8z"/></g><g class="st5"><path class="st1" d="M22.1 305.8z"/></g><g class="st5"><path class="st1" d="M22.1 305.8z"/></g><g class="st5"><path class="st1" d="M22.1 305.8z"/></g><g class="st5"><path class="st1" d="M22.1 305.8z"/></g><g class="st5"><path class="st1" d="M22.1 305.8z"/></g><g class="st5"><path class="st1" d="M22.1 305.8z"/></g><g class="st5"><path class="st1" d="M22.1 305.8z"/></g><g class="st5"><path class="st1" d="M22.1 305.8z"/></g><g class="st5"><path class="st1" d="M22.1 305.8z"/></g><g class="st5"><path class="st1" d="M22.1 305.8z"/></g><g class="st5"><path class="st1" d="M22.1 305.8z"/></g><g class="st5"><path class="st1" d="M22.1 305.8z"/></g><g class="st5"><path class="st1" d="M22.1 305.8z"/></g><g class="st5"><path class="st1" d="M22.1 305.8z"/></g><g class="st5"><path class="st1" d="M22.1 305.8z"/></g><g class="st5"><path class="st1" d="M22.1 305.8z"/></g><g class="st5"><path class="st1" d="M22.1 305.8z"/></g><g class="st5"><path class="st1" d="M22.1 305.8z"/></g><g class="st5"><path class="st1" d="M22.1 305.8z"/></g><g class="st5"><path class="st1" d="M22.1 305.8z"/></g><g class="st5"><path class="st1" d="M22.1 305.8z"/></g><g class="st5"><path class="st1" d="M22.1 305.8z"/></g><g class="st5"><path class="st1" d="M22.1 305.8z"/></g><g class="st5"><path class="st1" d="M22.1 305.8z"/></g><g class="st5"><path class="st1" d="M22.1 305.8z"/></g><g class="st5"><path class="st1" d="M22.1 305.8z"/></g><g class="st5"><path class="st1" d="M22.1 305.8z"/></g><g class="st5"><path class="st1" d="M22.1 305.8z"/></g><g class="st5"><path class="st1" d="M22.1 305.8z"/></g><g class="st5"><path class="st1" d="M22.1 305.8z"/></g><g class="st5"><path class="st1" d="M22.1 305.8z"/></g><g class="st5"><path class="st1" d="M22.1 305.8z"/></g><g class="st5"><path class="st1" d="M22.1 305.8z"/></g><g class="st5"><path class="st1" d="M22.1 305.8z"/></g><g class="st5"><path class="st1" d="M22.1 305.8z"/></g><g class="st5"><path class="st1" d="M22.1 305.8z"/></g><g class="st5"><path class="st1" d="M22.1 305.8z"/></g><g class="st5"><path class="st1" d="M22.1 305.8z"/></g><g class="st5"><path class="st1" d="M22.1 305.8z"/></g><g class="st5"><path class="st1" d="M22.1 305.8z"/></g><g class="st5"><path class="st1" d="M22.1 305.8z"/></g><g class="st5"><path class="st1" d="M22.1 305.8z"/></g><g class="st5"><path class="st1" d="M22.1 305.8z"/></g><g class="st5"><path class="st1" d="M22.1 305.8z"/></g><g class="st5"><path class="st1" d="M22.1 305.8z"/></g><g class="st5"><path class="st1" d="M22.1 305.8z"/></g><g class="st5"><path class="st1" d="M22.1 305.8z"/></g><g class="st5"><path class="st1" d="M22.1 305.8z"/></g><g class="st5"><path class="st1" d="M22.1 305.8z"/></g><g class="st5"><path class="st1" d="M22.1 305.8z"/></g><g class="st5"><path class="st1" d="M22.1 305.8z"/></g><g class="st5"><path class="st1" d="M22.1 305.8z"/></g><g class="st5"><path class="st1" d="M22.1 305.8z"/></g><g class="st5"><path class="st1" d="M22.1 305.8z"/></g><g class="st5"><path class="st1" d="M22.1 305.8z"/></g><g class="st5"><path class="st1" d="M22.1 305.8z"/></g><g class="st5"><path class="st1" d="M22.1 305.8z"/></g><g class="st5"><path class="st1" d="M22.1 305.8z"/></g><g class="st5"><path class="st1" d="M22.1 305.8z"/></g><g class="st5"><path class="st1" d="M22.1 305.8z"/></g><g class="st5"><path class="st1" d="M22.1 305.8z"/></g><g class="st5"><path class="st1" d="M22.1 305.8z"/></g><g class="st5"><path class="st1" d="M22.1 305.8z"/></g><g class="st5"><path class="st1" d="M22.1 305.8z"/></g><g class="st5"><path class="st1" d="M22.1 305.8z"/></g><g class="st5"><path class="st1" d="M22.1 305.8z"/></g><g class="st5"><path class="st1" d="M22.1 305.8z"/></g><g class="st5"><path class="st1" d="M22.1 305.8z"/></g><g class="st5"><path class="st1" d="M22.1 305.8z"/></g><g class="st5"><path class="st1" d="M22.1 305.8z"/></g><g class="st5"><path class="st1" d="M22.1 305.8z"/></g><g class="st5"><path class="st1" d="M22.1 305.8z"/></g><g class="st5"><path class="st1" d="M22.1 305.8z"/></g><g class="st5"><path class="st1" d="M22.1 305.8z"/></g><g class="st5"><path class="st1" d="M22.1 305.8z"/></g><g class="st5"><path class="st1" d="M22.1 305.8z"/></g><g class="st5"><path class="st1" d="M22.1 305.8z"/></g><g class="st5"><path class="st1" d="M22.1 305.8z"/></g><g class="st5"><path class="st1" d="M22.1 305.8z"/></g><g class="st5"><path class="st1" d="M22.1 305.8z"/></g><g class="st5"><path class="st1" d="M22.1 305.8z"/></g><g class="st5"><path class="st1" d="M22.1 305.8z"/></g><g class="st5"><path class="st1" d="M22.1 305.8z"/></g><g class="st5"><path class="st1" d="M22.1 305.8z"/></g><g class="st5"><path class="st1" d="M22.1 305.8z"/></g><g class="st5"><path class="st1" d="M22.1 305.8z"/></g><g class="st5"><path class="st1" d="M22.1 305.8z"/></g><g class="st5"><path class="st1" d="M22.1 305.8z"/></g><g class="st5"><path class="st1" d="M22.1 305.8z"/></g><g class="st5"><path class="st1" d="M22.1 305.8z"/></g><g class="st5"><path class="st1" d="M22.1 305.8z"/></g><g class="st5"><path class="st1" d="M22.1 305.8z"/></g><g class="st5"><path class="st1" d="M22.1 305.8z"/></g><g class="st5"><path class="st1" d="M22.1 305.8z"/></g><g class="st5"><path class="st1" d="M22.1 305.8z"/></g><g class="st5"><path class="st1" d="M22.1 305.8z"/></g><g class="st5"><path class="st1" d="M22.1 305.8z"/></g><g class="st5"><path class="st1" d="M22.1 305.8z"/></g><g class="st5"><path class="st1" d="M22.1 305.8z"/></g><g class="st5"><path class="st1" d="M22.1 305.8z"/></g><g class="st5"><path class="st1" d="M22.1 305.8z"/></g><g class="st5"><path class="st1" d="M22.1 305.8z"/></g><g class="st5"><path class="st1" d="M22.1 305.8z"/></g><g class="st5"><path class="st1" d="M22.1 305.8z"/></g><g class="st5"><path class="st1" d="M22.1 305.8z"/></g><g class="st5"><path class="st1" d="M22.1 305.8z"/></g><g class="st5"><path class="st1" d="M22.1 305.8z"/></g><g class="st5"><path class="st1" d="M22.1 305.8z"/></g><g class="st5"><path class="st1" d="M22.1 305.8z"/></g><g class="st5"><path class="st1" d="M22.1 305.8z"/></g><g class="st5"><path class="st1" d="M22.1 305.8z"/></g><g class="st5"><path class="st1" d="M22.1 305.8z"/></g><g class="st5"><path class="st1" d="M22.1 305.8z"/></g><g class="st5"><path class="st1" d="M22.1 305.8z"/></g><g class="st5"><path class="st1" d="M22.1 305.8z"/></g><g class="st5"><path class="st1" d="M22.1 305.8z"/></g><g class="st5"><path class="st1" d="M22.1 305.8z"/></g><g class="st5"><path class="st1" d="M22.1 305.8z"/></g><g class="st5"><path class="st1" d="M22.1 305.8z"/></g><g class="st5"><path class="st1" d="M22.1 305.8z"/></g><g class="st5"><path class="st1" d="M22.1 305.8z"/></g><g class="st5"><path class="st1" d="M22.1 305.8z"/></g><g class="st5"><path class="st1" d="M22.1 305.8z"/></g><g class="st5"><path class="st1" d="M22.1 305.8z"/></g><g class="st5"><path class="st1" d="M22.1 305.8z"/></g><g class="st5"><path class="st1" d="M22.1 305.8z"/></g><g class="st5"><path class="st1" d="M22.1 305.8z"/></g><g class="st5"><path class="st1" d="M22.1 305.8z"/></g><g class="st5"><path class="st1" d="M22.1 305.8z"/></g><g class="st5"><path class="st1" d="M22.1 305.8z"/></g><g class="st5"><path class="st1" d="M22.1 305.8z"/></g><g class="st5"><path class="st1" d="M22.1 305.8z"/></g><g class="st5"><path class="st1" d="M22.1 305.8z"/></g><g class="st5"><path class="st1" d="M22.1 305.8z"/></g><g class="st5"><path class="st1" d="M22.1 305.8z"/></g><g class="st5"><path class="st1" d="M22.1 305.8z"/></g><g class="st5"><path class="st1" d="M22.1 305.8z"/></g><g class="st5"><path class="st1" d="M22.1 305.8z"/></g><g class="st5"><path class="st1" d="M22.1 305.8z"/></g><g class="st5"><path class="st1" d="M22.1 305.8z"/></g><g class="st5"><path class="st1" d="M22.1 305.8z"/></g><g class="st5"><path class="st1" d="M22.1 305.8z"/></g><g class="st5"><path class="st1" d="M22.1 305.8z"/></g><g class="st5"><path class="st1" d="M22.1 305.8z"/></g><g class="st5"><path class="st1" d="M22.1 305.8z"/></g><g class="st5"><path class="st1" d="M22.1 305.8z"/></g><g class="st5"><path class="st1" d="M22.1 305.8z"/></g><g class="st5"><path class="st1" d="M22.1 305.8z"/></g><g class="st5"><path class="st1" d="M22.1 305.8z"/></g><g class="st5"><path class="st1" d="M22.1 305.8z"/></g><g class="st5"><path class="st1" d="M22.1 305.8z"/></g><g class="st5"><path class="st1" d="M22.1 305.8z"/></g><g class="st5"><path class="st1" d="M22.1 305.8z"/></g><g class="st5"><path class="st1" d="M22.1 305.8z"/></g><g class="st5"><path class="st1" d="M22.1 305.8z"/></g><g class="st5"><path class="st1" d="M22.1 305.8z"/></g><g class="st5"><path class="st1" d="M22.1 305.8z"/></g><g class="st5"><path class="st1" d="M22.1 305.8z"/></g><g class="st5"><path class="st1" d="M22.1 305.8z"/></g><g class="st5"><path class="st1" d="M22.1 305.8z"/></g><g class="st5"><path class="st1" d="M22.1 305.8z"/></g><g class="st5"><path class="st1" d="M22.1 305.8z"/></g><g class="st5"><path class="st1" d="M22.1 305.8z"/></g><g class="st5"><path class="st1" d="M22.1 305.8z"/></g><g class="st5"><path class="st1" d="M22.1 305.8z"/></g><g class="st5"><path class="st1" d="M22.1 305.8z"/></g><g class="st5"><path class="st1" d="M22.1 305.8z"/></g><g class="st5"><path class="st1" d="M22.1 305.8z"/></g><g class="st5"><path class="st1" d="M22.1 305.8z"/></g><g class="st5"><path class="st1" d="M22.1 305.8z"/></g><g class="st5"><path class="st1" d="M22.1 305.8z"/></g><g class="st5"><path class="st1" d="M22.1 305.8z"/></g><g class="st5"><path class="st1" d="M22.1 305.8z"/></g><g class="st5"><path class="st1" d="M22.1 305.8z"/></g><g class="st5"><path class="st1" d="M22.1 305.8z"/></g><g class="st5"><path class="st1" d="M22.1 305.8z"/></g><g class="st5"><path class="st1" d="M22.1 305.8z"/></g><g class="st5"><path class="st1" d="M22.1 305.8z"/></g><g class="st5"><path class="st1" d="M22.1 305.8z"/></g><g class="st5"><path class="st1" d="M22.1 305.8z"/></g><g class="st5"><path class="st1" d="M22.1 305.8z"/></g><g class="st5"><path class="st1" d="M22.1 305.8z"/></g><g class="st5"><path class="st1" d="M22.1 305.8z"/></g><g class="st5"><path class="st1" d="M22.1 305.8z"/></g><g class="st5"><path class="st1" d="M22.1 305.8z"/></g><g class="st5"><path class="st1" d="M22.1 305.8z"/></g><g class="st5"><path class="st1" d="M22.1 305.8z"/></g><g class="st5"><path class="st1" d="M22.1 305.8z"/></g><g class="st5"><path class="st1" d="M22.1 305.8z"/></g><g class="st5"><path class="st1" d="M22.1 305.8z"/></g><g class="st5"><path class="st1" d="M22.1 305.8z"/></g><g class="st5"><path class="st1" d="M22.1 305.8z"/></g><g class="st5"><path class="st1" d="M22.1 305.8z"/></g><g class="st5"><path class="st1" d="M22.1 305.8z"/></g><g class="st5"><path class="st1" d="M22.1 305.8z"/></g><g class="st5"><path class="st1" d="M22.1 305.8z"/></g><g class="st5"><path class="st1" d="M22.1 305.8z"/></g><g class="st5"><path class="st1" d="M22.1 305.8z"/></g><g class="st5"><path class="st1" d="M22.1 305.8z"/></g><g class="st5"><path class="st1" d="M22.1 305.8z"/></g><g class="st5"><path class="st1" d="M22.1 305.8z"/></g><g class="st5"><path class="st1" d="M22.1 305.8z"/></g><g class="st5"><path class="st1" d="M22.1 305.8z"/></g><g class="st5"><path class="st1" d="M22.1 305.8z"/></g><g class="st5"><path class="st1" d="M22.1 305.8z"/></g><g class="st5"><path class="st1" d="M22.1 305.8z"/></g><g class="st5"><path class="st1" d="M22.1 305.8z"/></g><g class="st5"><path class="st1" d="M22.1 305.8z"/></g><g class="st5"><path class="st1" d="M22.1 305.8z"/></g><g class="st5"><path class="st1" d="M22.1 305.8z"/></g><g class="st5"><path class="st1" d="M22.1 305.8z"/></g><g class="st5"><path class="st1" d="M22.1 305.8z"/></g><g class="st5"><path class="st1" d="M22.1 305.8z"/></g><g class="st5"><path class="st1" d="M22.1 305.8z"/></g><g class="st5"><path class="st1" d="M22.1 305.8z"/></g><g class="st5"><path class="st1" d="M22.1 305.8z"/></g><g class="st5"><path class="st1" d="M22.1 305.8z"/></g><g class="st5"><path class="st1" d="M22.1 305.8z"/></g><g class="st5"><path class="st1" d="M22.1 305.8z"/></g><g class="st5"><path class="st1" d="M22.1 305.8z"/></g><g class="st5"><path class="st1" d="M22.1 305.8z"/></g><g class="st5"><path class="st1" d="M22.1 305.8z"/></g></g><g id="path4296_2_"><defs><path id="SVGID_11_" d="M21.2 299c0-.2-.1-.3-.1-.5.1.5.2 1.1.3 1.7 0 0 .6 2.4.7 4.6-.2-1.7-.4-3.5-.9-5.8z"/></defs><use xlink:href="#SVGID_11_" overflow="visible" fill="#010101"/><clipPath id="SVGID_12_"><use xlink:href="#SVGID_11_" overflow="visible"/></clipPath><g clip-path="url(#SVGID_12_)"><path class="st1" d="M21 298.5h1v6.3h-1z"/></g></g><path class="st1" d="M37.3 194.5c.4-.7.7-1.5 1-2.2.3-.9.6-2.1.8-3.4-.6 2.7-1.4 4.4-1.4 4.4s-.2.5-.4 1.2z" id="path4311_2_"/><path class="st1" d="M39.8 174.3c-.2 2.7-.2 6-.2 9.1.3-3.1.3-5.7.3-5.7v.1s0-2.6-.1-3.1v-.4z" id="path4313_2_"/><path class="st1" d="M442.6 494.4s13.5-5.7 20.7-4.8c0 0 3.7.4-.4 4.3-4.1 4-5.4 7.1 2.5 4.6l1.5-.5c-3.1.9-4.5.9-4 .2.8-1.2 2.8-2.8 2.8-2.8s2.4-2.5 2.4-4.9c0 0 .8-3.6-9.8-1.4-6.2 1.2-12 3.6-15.7 5.3-.1 0-.1 0 0 0z" id="path4338_2_"/><path class="st1" d="M475.2 494.9c8.8-3.2 24-11.3 30.6-15.2-6.7 3.9-21.9 11.6-30.6 15.2z" id="path4344_2_"/><path class="st1" d="M291.9 554.1z" id="path4436_2_"/><path class="st1" d="M291.1 554.1h-.1.1z" id="path4438_2_"/><path class="st1" d="M291.5 554.1h-.1.1z" id="path4440_2_"/><path class="st1" d="M290.7 554.1h-.1.1z" id="path4442_2_"/><path class="st1" d="M290.3 554.2h-.1.1z" id="path4444_2_"/><path class="st1" d="M169.2 529.6c-.1-.1-.2-.1-.4-.2.2.2.3.2.4.2z" id="path4458_2_"/><path class="st1" d="M277.6 547.1h-.5.5z" id="path4462_2_"/><path class="st1" d="M166.9 528.9c.1 0 .2.1.4.1-.2-.1-.3-.1-.4-.1z" id="path4464_2_"/><path class="st1" d="M166.2 528.7c.3.1.5.1.7.2-.3-.1-.5-.2-.7-.2z" id="path4466_2_"/><path class="st1" d="M168 529.2c-.3-.1-.5-.1-.8-.3.3.2.6.3.8.3z" id="path4468_2_"/><path class="st1" d="M169.2 529.6c.2.1.5.1.7.3-.2-.1-.4-.2-.7-.3z" id="path4472_2_"/><path class="st1" d="M168.8 529.5c-.1-.1-.3-.1-.4-.1.2 0 .3.1.4.1z" id="path4478_2_"/><path class="st1" d="M280.7 547.4h-.4.4z" id="path4482_2_"/><path class="st1" d="M281.2 547.5c-.1 0-.2 0-.3-.1.1.1.1.1.3.1z" id="path4486_2_"/><path class="st1" d="M281.6 547.6c-.1 0-.2-.1-.3-.1.1 0 .2.1.3.1z" id="path4488_2_"/><path class="st1" d="M279.1 547.2c-.2 0-.4-.1-.6-.1.2.1.4.1.6.1z" id="path4490_2_"/><path class="st1" d="M280.2 547.3c-.1 0-.3 0-.4-.1.1.1.2.1.4.1z" id="path4492_2_"/><path class="st1" d="M279.6 547.3c-.2 0-.4 0-.5-.1.2 0 .4 0 .5.1z" id="path4494_2_"/><path class="st1" d="M278.3 547.1c-.1 0-.3 0-.5-.1.2.1.4.1.5.1z" id="path4496_2_"/><path class="st1" d="M168.4 529.4c-.1 0-.3-.1-.4-.1.2 0 .3 0 .4.1z" id="path4498_2_"/><path class="st1" d="M287 553.8z" id="path4500_2_"/><path class="st1" d="M286.8 553.8c.1 0 .1 0 0 0z" id="path4502_2_"/><path class="st1" d="M287.1 553.9z" id="path4504_2_"/><path class="st1" d="M287.4 553.9s0 .1 0 0c0 .1 0 0 0 0z" id="path4506_2_"/><path class="st1" d="M287.2 553.9c.1 0 .1 0 0 0z" id="path4508_2_"/><path class="st1" d="M286.6 553.7z" id="path4510_2_"/><path class="st1" d="M282.1 547.7c-.1 0-.2-.1-.3-.1.1 0 .1.1.3.1z" id="path4512_2_"/><path class="st1" d="M283.1 547.9c-.1 0-.1-.1-.2-.1.1.1.2.1.2.1z" id="path4514_2_"/><path class="st1" d="M297 553.7h-.2.2z" id="path4516_2_"/><path class="st1" d="M282.5 547.8c-.1 0-.2-.1-.4-.1.2 0 .3 0 .4.1z" id="path4518_2_"/><path class="st1" d="M289.2 554.1c.1 0 0 0 0 0z" id="path4520_2_"/><path class="st1" d="M289.6 554.1h.1-.1z" id="path4522_2_"/><path class="st1" d="M273.7 547h.9-.9z" id="path4524_2_"/><path class="st1" d="M288.9 554.1s.1 0 0 0c.1 0 0 0 0 0z" id="path4526_2_"/><path class="st1" d="M283.2 547.9s1 .2.4 2.1c-.6 2 .4 2.7 2.9 3.6l.1.1c-.5-.3-.5-.5-.5-.5s-.1-.5.5-1.3c.5-.8.1-2.2-1.8-3.2 0-.1-.4-.4-1.6-.8z" id="path4528_2_"/><path class="st1" d="M289.9 554.1h0z" id="path4530_2_"/><path class="st1" d="M287.6 554z" id="path4532_2_"/><path class="st1" d="M288.7 554.1z" id="path4534_2_"/><path class="st1" d="M287.8 554z" id="path4536_2_"/><path class="st1" d="M288 554z" id="path4538_2_"/><path class="st1" d="M288.2 554.1z" id="path4540_2_"/><path class="st1" d="M282.8 547.8c-.1 0-.2 0-.3-.1.1.1.3.1.3.1z" id="path4542_2_"/><path class="st1" d="M173.4 531.2l-.1-.1s.1 0 .1.1z" id="path4544_2_"/><path class="st1" d="M173.6 531.2l-.1-.1c0 .1 0 .1.1.1z" id="path4546_2_"/><path class="st1" d="M173 531c-.1 0-.1 0-.2-.1.1.1.1.1.2.1z" id="path4548_2_"/><path class="st1" d="M276.4 547c.2 0 .3.1.5.1-.2-.1-.3-.1-.5-.1z" id="path4550_2_"/><path class="st1" d="M173.7 531.3s-.1 0-.1-.1l.1.1z" id="path4552_2_"/><path class="st1" d="M165.1 528.4c.2.1.5.1.7.2-.3-.1-.5-.2-.7-.2z" id="path4554_2_"/><path class="st1" d="M165.8 528.5c.1 0 .2.1.4.1-.2 0-.3 0-.4-.1z" id="path4556_2_"/><path class="st1" d="M173.8 531.3z" id="path4558_2_"/><path class="st1" d="M172.8 530.9c-.1-.1-.2-.1-.2-.1 0 .1.1.1.2.1z" id="path4560_2_"/><path class="st1" d="M167 531.1l-.2-.2c-1.6-1.2-2.1-2.6-2.1-2.6l.1-.1c.1.1.2.1.4.1-1.8-.5-3.1-.6-2.9-.1.1.4.8 1 1.7 1.5 1.1.6 2.1 1.2 3.2 1.7l-.2-.3z" id="path4562_2_"/><path class="st1" d="M173.2 531.1c-.1 0-.1 0-.2-.1.1.1.2.1.2.1z" id="path4564_2_"/><path class="st1" d="M172.5 530.8c-.1 0-.2-.1-.3-.1.1.1.3.1.3.1z" id="path4566_2_"/><path class="st1" d="M174 531.4l-.1-.1c0 .1.1.1.1.1z" id="path4568_2_"/><path class="st1" d="M170.3 530c-.1-.1-.2-.1-.3-.1.1 0 .2.1.3.1z" id="path4570_2_"/><path class="st1" d="M275.7 547h.5-.5z" id="path4572_2_"/><path class="st1" d="M274.8 547h.6-.6z" id="path4574_2_"/><path class="st1" d="M171 530.3c-.2-.1-.4-.1-.7-.3.3.1.5.2.7.3z" id="path4576_2_"/><path class="st1" d="M171.9 530.6c-.1 0-.1-.1-.2-.1.1.1.2.1.2.1z" id="path4578_2_"/><path class="st1" d="M171.3 530.4c-.1 0-.2-.1-.3-.1.1 0 .2.1.3.1z" id="path4580_2_"/><path class="st1" d="M172.3 530.7c-.1 0-.2-.1-.3-.1.1.1.2.1.3.1z" id="path4582_2_"/><path class="st1" d="M171.7 530.5c-.1-.1-.2-.1-.3-.1.1 0 .2.1.3.1z" id="path4584_2_"/><path class="st1" d="M424.8 513.7z" id="path4586_2_"/><path class="st1" d="M429.4 511.9z" id="path4588_2_"/><path class="st1" d="M429.2 511.9c0 .1 0 .1 0 0 0 .1 0 .1 0 0z" id="path4590_2_"/><path class="st1" d="M429.1 512.1c-.1 0-.1 0 0 0-.1 0-.1 0 0 0z" id="path4592_2_"/><path class="st1" d="M428.9 512.1z" id="path4594_2_"/><path class="st1" d="M427.2 512.9z" id="path4596_2_"/><path class="st1" d="M427 512.9z" id="path4598_2_"/><path class="st1" d="M428.6 512.2z" id="path4600_2_"/><path class="st1" d="M426.6 513.1z" id="path4602_2_"/><path class="st1" d="M426.4 513.2s0-.1 0 0c0-.1 0 0 0 0z" id="path4604_2_"/><path class="st1" d="M426.8 513z" id="path4606_2_"/><path class="st1" d="M296.4 553.7h-.2c.1.1.2 0 .2 0z" id="path4608_2_"/><path class="st1" d="M426.2 513.2z" id="path4610_2_"/><path class="st1" d="M429.4 501.6c.1-.1.1-.1.3-.2-.2.1-.3.2-.3.2z" id="path4612_2_"/><path class="st1" d="M430.1 501.1c.1-.1.1-.1.2-.1-.1 0-.1.1-.2.1z" id="path4616_2_"/><path class="st1" d="M430.1 510.1c1.2.4.6 1-.5 1.7l.6-.2s4.8-2.7 2.8-3.9c-2.1-1.2-6.8-1.7-3.7-5.9l.1-.1c-2.7 2.1-4.6 4.4-3 6.2-.1.1.6 1.2 3.7 2.2z" id="path4618_2_"/><path class="st1" d="M428.1 512.5s-.1 0 0 0c-.1 0-.1 0 0 0z" id="path4620_2_"/><path class="st1" d="M428.5 512.3c-.1.1-.1 0 0 0z" id="path4622_2_"/><path class="st1" d="M428.3 512.4s-.1 0 0 0c-.1 0 0 0 0 0z" id="path4624_2_"/><path class="st1" d="M427.6 512.7z" id="path4626_2_"/><path class="st1" d="M427.4 512.8z" id="path4628_2_"/><path class="st1" d="M429.7 501.4c.1-.1.2-.1.2-.2 0 .1-.1.1-.2.2z" id="path4630_2_"/><path class="st1" d="M292.4 554.1h-.1.1z" id="path4632_2_"/><path class="st1" d="M293.4 554.1h-.1.1z" id="path4634_2_"/><path class="st1" d="M292.9 554.1h-.1.1z" id="path4636_2_"/><path class="st1" d="M303 547.3s2.2 1.4 10.2 1.7c0 0 2.7 0 2.9.2.1.2.2.3-.4.6.4-.1 4.8-1.6 2.9-2.4-.2-.1-.4-.1-.5-.2H317.8h-.1-.1-.1s-.1 0-.1-.1h-.1-.1-.1-.1-.4-.1-.1-.1-.2-.1-.1-.1-.1c-.3 0-.5 0-.8-.1h-.1-.2-.1-.1-.1-.4H313.6h-.2-.2-.1-.2-.5c-.1 0-.1 0-.2-.1h-.5c-.9-.1-1.7-.2-2.3-.4l-1.2-.1s-2.9-.1-4-1.9c-.7-1.2 2.8-1.9 2.8-1.9s5.8-1.2 11.7-2c0 0-15.5 1.8-16.9 3.8-1.3 1.8 1.2 2.9 1.2 2.9z" id="path4638_2_"/><path class="st1" d="M424.6 513.8z" id="path4640_2_"/><path class="st1" d="M424.6 513.8z" id="path4642_2_"/><path class="st1" d="M295.8 553.8h-.1.1z" id="path4644_2_"/><path class="st1" d="M295.1 553.9h-.2.2z" id="path4646_2_"/><path class="st1" d="M294.5 554h-.2.2z" id="path4648_2_"/><path class="st1" d="M294 554h-.2.2z" id="path4650_2_"/><path class="st1" d="M425.5 513.5c0-.1 0-.1 0 0z" id="path4652_2_"/><path class="st1" d="M425.3 513.5z" id="path4654_2_"/><path class="st1" d="M425.8 513.4z" id="path4656_2_"/><path class="st1" d="M425 513.6c.1 0 .1 0 0 0 .1 0 .1 0 0 0z" id="path4658_2_"/><path class="st1" d="M425.6 513.4s.1 0 0 0c.1 0 0 0 0 0z" id="path4660_2_"/><path class="st1" d="M424.6 513.7z" id="path4662_2_"/><path class="st1" d="M424.6 513.7c.1 0 .1 0 0 0z" id="path4664_2_"/><path class="st1" d="M424.9 513.6z" id="path4668_2_"/><path class="st1" d="M424.8 513.7z" id="path4670_2_"/><path class="st1" d="M500.4 482.8l2.7 1c-.2.4-.4.7-.6 1.1-5.3 9.6-5.7 11.7-8.3 13.7-2.6 2-3.6 3.3-8.8 4.2-5.2.9-10.8 7.1-10.8 7.1s-5.3 5.1-2.9 5.3c2.4.2 7.2-3.7 7.2-3.7s3-2.2 3.8-1.6c.8.6-3.3 4.6-3.3 4.6s-7.1 7.2-15.1 12l-2.5 1.3s11.4-8.5 16.8-14.6c0 0 1.1-1.6-1.1.4s-8.1 5-10.6 5 .1-3.5.1-3.5 3.6-4.7 11-10.7c7.4-6 13.6-5.6 13.6-5.6s1.4.3 1.6-1.7c.2-1.9 1.9-5.3 1.9-5.3s2.8-6.3 10.2-16.7c7.4-10.4 10.8-13.4 10.8-13.4s9.6-9.9 14.7-19.8c0 0 3.5-6.1-2.2-1.6-5.8 4.6-13.5 10.4-20.9 12.2-7.5 1.9-8.2-5.1-8.2-5.1s-1.6-11.5 6.4-20.3c7.2-8.1 15.2-7.8 22.4-8.6 7.2-.9 13.5-9.6 13.5-9.6s5-5.6 7.8-23.1c1.3-8.1.4-13.6-.9-17.2l.1-3.9-2.2-.1c-.5-.7-.8-1-.8-1s-1.8-1.8-3.7-3.2c-1.9-1.4-4.2-4-6.5-8.9 0 0-6.2-12.8-4.8-31.4 1.4-18.5 16.8-16.8 16.8-16.8s9 .9 10.7-1.8c1.7-2.7 3.4-6 4-13.5.6-7.5-2.4-14.7-2.4-14.7s-1.2-3.7-6.4-4.3c-5.2-.6-6.4 1-6.4 1s-1.6.4-4.4 6.6c-2.9 6.2-4.6 9.1-9.8 10.4-5.2 1.3-12.3.6-15.5-6-3.1-6.5-10.7-22.5-14.3-35.1l.5-4.5-2-2.9c-.4-2.4-.7-5.2-.8-7.5-.2-6.1-2-12.8-3.9-19.5-2-6.7-8.9-18.1-10.2-20.7-2-4.1-3.8-5.8-6.2-5.4-2.4.3-2.1.3-3.1.3s-1.6 1.3-1.9 2.6c-.3 1.3-2.3 8-6.7 11-4.6 3.1-7 4.5-14.9 5.2 0 0-9.1.6-16.2-12.8-7.2-13.4-5.3-21.9-4.7-25 .6-3.1 3.3-7.6 7.5-8.4 4.2-.9 6.8-1.1 6.8-1.1s6.8-.1 9.7-.4c3.4-.5 1.7-6.1 1.7-6.1s-2.2-14.5-14.3-26.3l-.6-3-4.6-2.3c-11.5-12.4-26.5-32.6-26.5-32.6s-6.7-6.4-1.1-15.2c0 0 2.7-5.9 10.6-4.8 2.6.5 2.8.8 5 1.2 2.9.6 6.1 1.4 9-2.4 0 0 2.7-4.8-1.7-11-4.3-6.2-5.6-10.6-10.9-10.3 0 0-2.4-.3-4.8 2.3-2.4 2.7-8.6 4.4-12.2 4.7-4.1.4-13.7-3.2-19.2-12.7-3.1-5.3-4.6-8.2-5.3-9.7l1.4-2.1 4.4.5c1.1 2.2 3.3 6.4 6 11 3.4 6 6.4 6.8 8.3 7.7 2 .9 6.4-.4 8.7-1.7 2.4-1.3 4.7-4.2 8.7-4.5 4-.3 9.9.5 14 4.8 4.2 4.4 9.4 13.5 8.9 17.9-.5 4.3-.7 8.5-6.3 10.3-5.6 1.8-7.9.3-11.5-.5-3.6-.8-5.3-.4-6.7 1.3-1.5 1.7-3.1 5.4-2.5 7.1.6 1.7 1.1 2.8 4.6 7.7 3.4 4.9 21.2 25.9 24.5 29.1l-.9 4.3 5.9 1.1c3.8 4.4 8.3 10.2 10.3 13.8 3 5.5 4.6 14.2 4.7 18.3.2 4.1-1.8 5.9-1.8 5.9s-1.9 3.2-12.2 3.2c-9.2 0-9.8 1.8-9.8 1.8s-2.9 2.8-2.3 9.8c.7 7 3.8 14.3 9.5 20.5 4.8 5.2 13.7 0 16.7-1.8 3.1-1.8 5-7.7 5-7.7s.6-7.4 8.7-7.4c8.4 0 12 8 12 8s5.8 7.9 11.8 25.1c2.9 8.5 3.5 13.9 3.5 13.9l.8 10.1-3 5.5 4.5 1.9c.8 3.3 2.1 7.6 4.2 12.4 0 0 6.1 14.5 8.8 20 2.7 5.5 5.5 4.7 7.7 4.9 0 0 5.2.7 7-1.7 1.9-2.4 3.7-6.7 3.7-6.7s4-11 13-10.1c9 1 11.2 6.6 12.8 13.2 1.6 6.5 1.9 19.7-3 27.7-4.8 8-10.3 6.9-10.3 6.9s-11-1.1-13.6 1.3c-2.5 2.3-3.8 4.4-4.1 9.8-.4 5.4.2 14.2 4.6 24.8 3.8 9.3 7 8.3 8.7 10.5 1.7 2.3 7.3 7.3 6.7 19.9-.5 12.6-4.8 25.3-9.6 33.1-4.8 7.8-12.2 12.5-12.2 12.5s-2.1 1.3-6.5 1.9c-4.5.6-10.9.5-15.5 3.1s-6 9.1-6.5 12c-.4 2.9-.7 9.4 5.6 8.6 6.3-.7 15.7-8.5 15.7-8.5s9.1-6.7 10.2-4.6c1.2 2.2-3.9 10.9-3.9 10.9s-6.3 9.5-11.5 15.3c-4.3 4.8-10 11.4-14.8 18.9l-4.8 3.2z" id="path3945_2_"/><g id="g3947_2_"><path class="st1" d="M141.1 138.3c-.1.1-.1.1-.1.2 0-.1.1-.2.1-.2z" id="path3954_2_"/><path class="st1" d="M230.9 546.1h1c-1-.9-2.2-1.7-3.8-2.5-4.3-2.3-22.7-14.5-28.4-18.3-5.7-3.9-15.7-10.4-20.1-9-3.4 1.1-2.9 2.4-4.9 3.4-2 .9-4.2.3-9.1-2.4-5-2.6-8.7-4.4-18.4-13.6-7.6-7.3 9.7-.7 9.7-.7s3.8 1.6 2.1-2.3c-1.7-4-10.2-14.2-18.2-22.5-6.5-6.7-10.2-11.4-14.8-18.1l-3.5-4 .1-1c-.1-.1-.2-.3-.3-.5 0 0-11.4-20.6-10.2-28.1 0 0 .4-5 7.6-7.2 5-1.5 4.3 3.3 19 5.9 0 0 12.6 3.4 15.9-5.8 3.3-9.1-3.5-20.7-3.5-20.7s-8.8-16.2-19.8-16.8c-5.8-.3-4.2 3.6-12.9 5.6 0 0-11.6 1.1-15.4-5.9-4.5-8.4-6.3-18.1-6.2-24.5.1-6.1.3-6.6.7-8.3.3-1.3 1.2-3.6 1.6-6.9l-.8-4.1 1.3-3.1c0-1.6 0-3.2-.2-5.1-.5-10.1-1.3-25.7-2.7-34.8-1.4-9.1-3.9-23.1-12.1-23.5 0 0-4.1-.3-9.9 5.4-5.4 5.2-10.2-4.3-10.5-10.1-.4-6.8.8-13.7 2.5-17 1.7-3.3 6.3-3.5 7.2-3.4.9.1 3.4 1.1 6.3 2.9 3 1.9 7.1 1.9 9.5-.6 2.4-2.4 5.8-5.2 7.1-15.8s1.4-21.6.1-34.8l-1.4-3 8.2-1.8c0-.1-.1-.8-.2-1.2v-.3-.1c0-.1 0-.2-.1-.4 0-.1-.1-.3-.1-.4 0-.1-.1-.3-.1-.4v-.1-.4-.1c0-.1 0-.3-.1-.4v-.1c0-.2-.1-.3-.1-.5s0-.3-.1-.5v-.1c0-.2 0-.3-.1-.5v-.1c0-.2-.1-.3-.1-.5v-.1c0-.2 0-.4-.1-.5v-.1c0-.2 0-.4-.1-.5v-.1c0-.2 0-.4-.1-.6v-.1c0-.2-.1-.4-.1-.5v-.1c0-.2 0-.4-.1-.6v-.1-.6-.1c0-.2 0-.4-.1-.6v-.1c0-.2-.1-.4-.1-.6v-.1-.6-.1-.6-.1-.6-.1-.6-.1-.6-.1-.6-.1-.6-.1-.6-.1-.6-.1-.6-.1-.6c.3-7.6 1.8-10.7 1.8-10.7l.4-1s2.8-8.9 7-15l-.1.1s2.7-4.5 7.5-5 6.1 1 8.3 1.2c.3 0 .5 0 .7.1H133.9c.1 0 .2 0 .3-.1.2 0 .4-.1.6-.1.1 0 .1 0 .2-.1h.1c.1 0 .1 0 .2-.1h.1s.1 0 .1-.1h.1s.1 0 .1-.1h.1c.1 0 .1 0 .1-.1h.1s.1 0 .1-.1 0 0 .1-.1h.1s.1 0 .1-.1h.1s0-.1.1-.1h.1c2-1.5 3.6-3.1 4.9-4.7.1-.1.2-.2.2-.3v-.1l.3-.3v-.1c.1-.1.2-.2.2-.3.2-.3.5-.7.7-1v-.1c.1-.1.1-.2.2-.3 0 0 .1 0 .1-.1s.1-.2.1-.3c0 0 0-.1.1-.1.1-.1.1-.2.2-.3.1-.2.2-.3.3-.5v-.1c0-.1.1-.1.1-.2s0-.1.1-.1c0-.1.1-.1.1-.2s0-.1.1-.1l.1-.1c0-.1.1-.1.1-.1s0-.1.1-.1c.4-.8.6-1.3.6-1.3 3.6-8.9.3-17.9-1.3-19.6-2-2.2-6.3-5.4-6.3-5.4s-2.6-2.2-6.6-.2c-3.2 1.6-4.3 1.2-4.3 1.2-.1-3 .9-8.7 3-13.8 2.1-5 6.6-13.7 6.6-13.7s6.4-10.9 8.9-17.6c2.6-6.7 2.5-11.8 2.5-11.8s-4.8-6.2-5.5-7.2c-.7-1-1.7-1.4-1.7-1.4-1.2.5-2.1.6-2.1.6l1.1-.9s2.6-3 6.5-2 6.8-.8 6.8-.8c6.2-4.7 10.1-13.3 10.1-13.3l6-12.1-5-8.1s-.8-.2-6 1.6c0 0-4.7 11.6-10.5 18.8 0 0-2.3 3.4-4 2.5-1.7-.8-3.8-.9-5.5-.5-1.7.4-7.1 2.1-11.9 8.6-4.8 6.5-5.4 11.3-2.8 12.8 2.6 1.5 6.3-.5 8.6-2.5s3.9-2.9 4.6-2.9c.7.1.6 1.9.4 2.5-.2.6-1 8.3-9.9 23.8-2.2 3.9-5.1 9.7-6.5 12.4l3.7 2.7-6.1 3.1c-1.7 4.6-3.7 11.8-2.9 15.9 1.2 6.2 7.1 6.2 7.1 6.2s3.8.2 8.2-2.1c4.4-2.3 5.4 7.6 5.4 9.2 0 1.6 0 10.5-6.2 14.9 0 0-2.5 1.9-6 1.9s-5.8-1-5.8-1-6-1.7-9.7.5c-3.7 2.2-8.1 6.7-11.6 13.2-3.5 6.5-6.4 18.2-6.2 26.8.1 6.8 1.1 13.2 1.8 17.5l4.1 2.6L93 198c.5 6.9 1 20.5.9 25-.1 5.6-.9 17.3-6.8 20.1 0 0-2 1-5.3-1.5s-6.9-2.6-8.3-2.7c-1.5 0-7.8 1-10.3 8-2.5 7-2.3 16.4-1.8 21.9.5 5.5 5.3 15 11.4 15 0 0 3 .2 6.4-3.4 3.5-3.6 5.5-3.9 7.1-3.8 1.6.1 4.5 1.7 6.5 17.3 1.9 14.9 2.7 27.1 2.5 40.6l3.7 2.4-4.6 4.7c-.3 1.2-.5 2.6-.9 3.8-1 4.2-1.2 8.3-.2 15.7 1 7.4 5 22.7 10.7 26.6 7.6 5.3 12.6 5.2 17.8 4.8 5.1-.4 8.7-4.3 8.7-4.3s2-2.1 4.2-1.4c2.2.6 8.2 4 12.5 12.7 4.3 8.7 5.3 18.2-1.9 19.9-7.2 1.7-19.7-5.2-19.7-5.2s-7.1-3.9-12.8.4c-5.8 4.3-6 11-3.1 19.2 1.6 4.5 4.8 11.8 9.2 19.4l4.4 1.9-1.1 3.4c3 4.6 6.4 9 10.2 12.8 0 0 15.1 16.6 23.4 27.1 0 0 .5 1-1 .1s-7.7-3.8-11.1-3.5c-3.4.4-2.8 2.4-2.8 2.4s1.5 7.6 24.4 20.5c0 0 8.3 4.6 13.5 4.6 0 0 1.7.3 3.7-2.1 2.1-2.3 2.8-2.1 4.2-1.6 1.4.5 3.4 1.5 10.6 6.8 7.2 5.2 21.3 13.2 26.3 16.6 5.1 3.4 4.8 4 3.8 6.4-1.1 2.4 3.6 3.8 3.6 3.8s11.6 5.2 17.8 5.2c6.3-.1 8.9-.7 12.7.1 3.9.8 7.8 1.8 8.2 2.1.4.3-1.9.2-1.9.2s-14.4-1.7-15.2-1.3c-.8.4.1 1.2 6 2.7v-.5c7.6 1.3 15.3 2.4 23 3.1-3-.4-15.3-2-23.2-4.3 0 0-.8-.5 1.1-.1 1.8.4 12.3 1.4 15 1 2.7-.4-.6-1.7-.6-1.7s-5.5-2.6-17.6-3.6c0 0-4.9-.3-9.1.1-4.3.4-8.6-1.6-8.6-1.6s-6.3-1.9-4.7-3.9c.8-1 .9-2.1.4-3.1l-3.4-.7z" id="path3961_2_"/></g><path class="st1" d="M619.9 281.5l-.6-1.5v.2l-.2-.4 1.8-3.1s-1.7 2-8.5 13.2c-7.7 12.7-8.9 23-8.9 23s-.7 4-.3 6.3c.4 2.2 1.2 3.1 1.2 3.8 0 .6-.5 5.8-3.1 10.8-2.7 5-5 6.3-5 6.3s-4.6 3.3-5.3 1c-.6-2.4-.4-4.4-.2-5.9s1.8-9.6 1.6-12.6c-.2-3-2.9-.6-2.9-.6s-.6.7-1.8 2.2c-1.2 1.5-7.9 10-10.4 12.9-6 7.1-11.5 12.1-26.1 23.9-.1 0-.1.1-.1.1l-2.1 3.8 4.2.7c12-9.6 23.5-21.7 23.5-21.7s7.7-7.7 11.5-14.3c3.6-6.3.1 5.4.1 5.4s-1.9 9.2 1.2 12.6c2.5 2.7 9.5-4.8 9.5-4.8s4.2-4.8 5.9-12.5c2.5-11.4 1.1-13.7 1.1-13.7s-1.5-2.4-.6-5.2c1-2.8 7.1-18.6 12-24.4l1.4-1.6c-2.7 31.2-5.3 41.9-5.3 41.9s.1-.2.2-.6c1.1-5 2.2-10 3.1-15.1h-.1s2.1-19.7 2.8-26.7v-.4l.8-.9v-.2l-.6-1.5c.2-.2.2-.3.2-.4zM275.2 169.7zM271.1 123.8c-.6-5.9.3-7.9 3.7-9.4 3.5-1.6 6.8-1.1 11.8-.8 5 .3 8.7-.5 11.2-1.9 2.6-1.5 9.6-5.3 9.2-13.2-.5-7.8-6.8-17.2-11.9-20.4-5.1-3.2-11.9-1.9-15.6.8-3.7 2.8-5.1 6.3-7.4 7.4-2.3 1.1-5.5 3.7-8.8 2.9-3.4-.8-3.5-8.3-5-16.9-.9-5.5-1.7-9.8-2.1-12.1l-4.1-1.6c.3 3.4 3.3 20.1 3.3 20.1s1.4 8.3 1.9 10.3 1.9 6.4 1.9 6.4.6 2.2 2.8 3.3c2.2 1.1 6.4 1.5 10.6-.2 4.2-1.7 5.4-3.5 7.3-5.7 1.9-2.2 2.6-3 2.6-3s4-3.8 9-2.1c4.9 1.7 7.9 7.5 7.9 7.5l.2.4s2.3 3.9 2.4 7.5c-.1.3-.5 2-4.2 4.9-4.1 3.2-7.5 2.9-10.2 2.7-2.8-.3-4.1-.4-4.9-.3l-4.4.2c-4.8.7-7.4 2.5-7.4 2.5-11 6.5 4.5 56.5 4.5 56.5l3.5-3.5c-7.4-26-7.8-42.3-7.8-42.3zM303.9 271.1c-4.9-8.6-12.9-13.2-16.8-15.1-4-1.9-13.1-2.8-19.3-.5s-7.5 4.1-9.8 8.1c-2.3 4-5.1 3.7-5.1 3.7s-8.7.3-11.5-13c-3.9-18.6 2.2-24.6 2.2-24.6s1.9-2.9 8.3-3.8c6.4-.9 10.5.7 15.5 1.9 4.9 1.2 8.6.7 14.7-2.3 6.2-3 8.8-7.9 7.6-16.7-1.2-8.5-1.6-10.6-9-36.3l-5.3-2.8-1.6 3.7s3.1 12.5 5.5 20.6c2.4 8.1 3.4 16.1 3.8 17.7.4 1.7.3 4.6-1.9 6.4-2.2 1.8-7.6 3.2-8.7 3.4-1.2.2-3.3-.3-6.1-1.2-2.8-1-5.6-1.2-5.6-1.2s-6.8-1.1-13.9 1.1c-7.2 2.2-12.6 9.5-13.1 18.8-.4 9.2-.4 13.9 3.3 22s10.1 12.8 15 12.9c4.9.1 8.9-2.5 11.8-6.4 2.8-4 3.6-4.6 3.6-4.6 3.3-1.9 11.8-2.6 16.2-1.1 4.3 1.6 12.2 6.5 16.6 16.3 3.5 7.9 4.6 16.7 4.5 32.7l3.5 2.7 3.2-3.2c.2-18.1-2.9-31-7.6-39.2zM307.9 313.6l-.1.1h.1l.1-.1zM373.8 535.3c-1 1.6-3.6 3.6-2.3 7.2 1.3 3.6 10.3 2.4 15.4.9 5.2-1.6 9.6-3 13-4.2 3.5-1.2 4.4.5 4.4.5s1.5 1.1-3.5 3.7-14.2 3.9-18.6 4.4c-4.4.6-3.1-.3-9.6 2-6.6 2.3-.4 4.3-.4 4.3 14.8 3.9 25.5.7 25.5.7l2-.6c1.6-.5 3.2-1 4.9-1.5-12.3 2.8-20.3.9-22.8.6-2.6-.4-4.8-.9-5.4-2.2-.6-1.3 2.9-1.2 2.9-1.2s10.3-1.2 19.7-4.2c9.5-3.1 11.8-6 11.4-8.2-.4-2.2-5.2-2-10.9-.2-5.7 1.9-14.2 4.6-16.2 5-2 .4-4.2.4-4.9-.9-.7-1.2-1.3-3.2.9-5.5s2.5-4.2 2.5-4.2c.4-1.6.4-3.2.1-4.9l-3.9-2.3-2.7 4c.6 3.9-.6 5.3-1.5 6.8zM43.5 413.8c0 .1.1.1.1.2l1.1.8-1-1h-.2z"/><path class="st1" d="M523.6 382.8s-10 7.5-20.9 13.4c-11 5.9-23.8 5.2-23.8 5.2s-3.5-.4-1.8-2.9 3.9-8.7 4.7-11.8 2.5-11.1-3.9-13.6-18.4 1.2-18.4 1.2-27.5 7.3-38.8 19.7c-10.9 12-1.7 17.3-1.7 17.3s4.3 3 8.4 4.5c3.9 1.4 3.1 2.6 2.2 3.4 0 0-12.3 7.8-26.8 12 0 0-19.9 6.1-39.2 7.3-19.2 1.2-27.4 1.7-27.4 1.7l-2.4 2.3h-.1l2.4-2.2c-2.1-4.1-4.2-7.7-4.2-7.7s-7.8-11.6-1.5-22.5c6.3-11 16.7-14.3 16.7-14.3s9.1-2 18.2.1c8.6 2 12.9-1.3 12.9-1.3s5.3-2.3 6.9-12.8c1.6-10.5-.1-30.1-14.1-34-14-3.9-21.5 3.4-21.5 3.4s-7.5 8.3-10 9.5c-2.5 1.2-6.2 3.4-6.2 3.4s-5.3 3.1-8.9 4c-2.4.5-10.9-10.8-11.7-19.5-.8-8-2.5-14.6-1.9-31l-2.9-3.8-3.6 4.2c-.1 1.5-.1 3-.1 4.6-.9 23.6 4.4 35.7 4.4 35.7 3 6.5 6.2 11.1 10.6 14.1s10.4 1 12.3 0c1.9-1 7.3-3.4 11.8-6.3 4.6-2.9 4.4-4.1 9.9-9.2s12.6-3.7 12.6-3.7 6.8.2 10.6 8c3.9 7.8 3.1 18.9 2.1 23-1 4-2.7 6.7-6.5 6-3.8-.7-10-1.3-12.3-1.4-2.3-.1-8.7-.3-14.6 1.2-5.7 1.5-13.4 5.6-20.8 17.6-5.7 9.3-2.9 18.3-1.6 21.9 1 2.8 3.8 6.7 6.3 11.5-7.8.9-21 2.8-34 6-16 3.9-31.2 7-42 14 0 0-8.1 5.4-3.5 10.6 4.7 5.2 9.5 7.5 9.5 7.5s2.9 1.3 2.8 2c0 1-.1 1.9-2.2 3.1 0 0-8.5 5-25 5.3-16.5.3-23.8.1-28.7-4.2-4-3.6 1-11.2 1-11.2s2-3.7 0-8.9c-2-5.1-13.5-5.2-13.5-5.2l-16-.8c-18.8-.5-43.7-2.6-54.8-4 0 0-.1 0-.2-.1v1l-4.4-1.9c-6.9-1.3-19.8-4.1-24.8-6.6-4.6-2.3-7.1-1.9-6.5-6.7.7-4.7-4.6-11.2-4.6-11.2S75 421.9 68.5 417c-6.5-4.9-9.3-3.5-9.3-3.5s-3 1.6-.3 7.9c2.7 6.3 5.2 8.6 5.2 8.6s1.3 1.3.6 1.7c-.7.4-3-1.3-4.8-2.9-1.6-1.3-11.5-10.6-15-13.9l.7 2.2.3.6c1.1 1.8 5.2 7.7 13.1 13.9 9.4 7.4 9.5 4.5 9.5 4.5s.4-2.5-1.8-5.1c-2.2-2.7-5.7-8.3-4.8-10.4.9-2.1 1.9-1.9 1.9-1.9s.8-.3 3.6 1.8 9.1 6.6 12.2 10.4c3.1 3.8 3 7.2 3 7.2s-.6 3.4 2.8 7.1c3.4 3.7 10.6 10.4 35.7 14.3.2 0 .2 0 .4.1l1.2-3.4 3.5 4c21.9 3.2 33.8 3.4 33.8 3.4s28.7 1 36.4 1c7.7 0 6.3 4.1 6.3 4.1s-.5 2.2-1.4 3.9c-1 1.8-3.2 8.3-.9 11.8 0 0 3.6 8.7 26.7 9.3 0 0 20.2 1.6 34.4-4.2 14.1-5.8 1.4-13.8 1.4-13.8s-4.8-3-6.9-4.5c-1.9-1.4-1.1-2.9-.7-3.9.4-1 1.8-2.2 3.4-3 1.7-.8 7.6-4 32.7-10.5s40.1-7.2 40.1-7.2h.2v.1c2.4 5.9 4.3 9.1 7.9 13.1 4 4.3 10.2 7.6 17.6 10.4 7.4 2.8 4 7.8 4 7.8-4.2 9.1-16.8 9.5-20.4 9.9-3.7.4-11.4 1.1-18.6 2.7-7.2 1.6-14 2.6-18 7.2-4 4.7-2.5 9.5-.1 14.6s8.7 7.8 17.4 7.5c8.7-.4 14.3-2.9 19.6-5.2 5.2-2.3 14.4-4.9 17.1-5.7 2.7-.8 6.4-2.4 9.1 1.6 3 4.3 6.1 10.3 7.5 14.9l3.3-.8 3.3-.7c-1.8-6.8-6.4-13.5-7.8-15.7-1.9-3.1-5.1-4.8-14.6-3.3-9.5 1.6-20.6 6.3-20.6 6.3s-11.5 6.1-20.1 5c-8.6-1.1-10.4-9.8-10.3-12.5.1-2.7 1.9-5.1 6.3-6.8 4.5-1.8 15-4.1 30.4-4.9 15.4-.8 21.1-10.8 21.1-10.8 2-2.9 5.6-9.4-3-14.2-8.6-4.8-8.8-3.6-12.9-6.7-4.1-3.2-8.6-7-10.3-12.4-.2-.5-.4-1.2-.7-1.8l-5-3.3.1-.2 5.2 3.4c4.5-.4 10.2-.8 15.4-1.1 10.3-.5 26.4-2.9 35.8-4.9 9.4-2.1 23.5-6.5 34-11.9s11-9.2 11-9.2 2-2.9-2.4-6.1c-4.4-3.2-6.3-2.3-10.2-6.2-3.9-3.9 3.4-9.9 3.4-9.9s3.7-5.2 24.5-13.2c20.7-8 24.2-5.3 25.3-4.5 1.1.9 1.2 3.8.8 5.7-.4 1.9-3 8.8-4.4 12.5-1.4 3.6-1.9 8.6 3.7 9.7 5.6 1.2 13.5-.1 20.9-2.7 17.6-6.3 22.9-14 52-35.1.1-.1.1-.1.2-.1v-3.9l-2.3-.1c-11.2 8.6-14.5 11.5-23.3 17.7zM47.8 99.2zM1.9 239.9s-.1.8.6.4c.8-.4 1.3-8.4 1.3-8.4s.1-17.1 5.1-37.4c5-20.3 7.8-25.9 7.8-25.9s.9-2.6.9-.5c-.1 2 1.2 2.2 1.2 2.2 2.3-.3 5-6.8 7.7-15.2 2.7-8.3 4.1-15.8 4.1-16.4 0-.7-.4-1.2-.9-.9-.6.4-.8.1-.8.1-.1-1.3 2.2-6.9 2.2-6.9 5.6-14.4 13.3-26.5 16.9-31.8-1.2 1.2-2.2 2.1-2.9 2.8-16.5 27.2-18.6 39.9-18.6 39.9-.1 1.3 0 1.9.7 1.9.4 0 1.5-2.1.7 2.2-.6 2.9-3.2 10.4-4.2 13.5-1.1 3.1-2.2 5.2-3 5-.8-.1-.8-1.4-.8-1.4s-.3-3.3-2.5 1.5-4.3 11.3-8.7 28.3c-.2.8-.4 1.6-.6 2.3L8 199l-1.1 2.3c-2.9 15.2-3.8 31.3-3.8 32.3.1 1.3-.2 1.3-.5 1.1-.3-.2.2-1-.3-1s-.7 1.3-.7 1.3c-.1 1.8-.2 3.5-.4 5.3h.1c.4-.8.6-.4.6-.4zM50.4 93.3c-1 1.6-1.6 2.6-2.6 4-.4.6-.3 1.8 0 2 1.3-1.8 2-2.9 2-2.9l.6-3.1zM4.4 285.5c-1.4-11-1.5-22.8-1.3-26 .3-3.3-.4-5-.8-5.1-.4 0-.6.3-.8 1.7-.2 1.4-.1 2.4-.4 2.3-.4-.1-.5-2.9-.5-2.9V259.6l.2 2.4c.2 3.7.8 2.2.8 1.5 0-.7.2-2 .2-2s.6-5.4.5.1c-.1 5.5 1.4 27.8 1.4 27.8.1 1.5.3 2.9.4 4.5l.3.4c-.1-.1-.2-.3-.3-.4l.3.4-1.3 3.2s.4.7 1.6 2.3l.1-.5c1.7 13.5 4.3 26.8 4.3 26.8 3.1 14.7 6.8 23.4 8 25.9 1.2 2.5 1.4.5 1-1.6-.4-2.2 3.3 4.2 5.3 10.2 2.1 6 3.4 11 3.4 11s1.6 4.7.9 5.1c-.7.3-1.8-1.8-1.8-1.8s-2.9-5.1-1.7-1.4c2.4 7.5 9.7 23.3 9.7 23.3l8.5 15.1c-6-11-13.9-28.3-14.8-30.5-.9-2.5-1.6-4.4-1.1-3.5.5.9 1.2 2.6 2.8 4.4 1.6 1.8 2.7-1.4-3.8-18.9s-8.2-18.5-8.5-18.8c-.3-.4-1.3-1.4-1 1 .3 2.5.1 4-3.1-7s-6.1-29.5-6.2-31c-.1-1-.6-5.7-1.2-11.9-.2-3.3-.6-6.6-1.1-10.2z"/><path class="st1" d="M608.7 172.9l.7-3s-1.9-1-4.2-.5c-2.4.5-2.6 2.2-6.2 2.8-3.6.6-7.8 1.9-11.9 8-4.1 6.2 0 13.8 0 13.8s2.2 3.6 3.2 5.5c1.1 1.9 6.5 13.5.2 22 0 0-3.4 3.9-9.3 5.2-5.3 1.2-3.9-5-4.5-8.2 0 0-.8-13.9-7.5-21.9-5.9-7-16.7 5.4-22.1 9.5-5 3.8-19.7 18.9-40.7 30l-3.1 5.4-2-2.9c-10.1 5-32.9 16.2-47.9 21.4 0 0-11.4 4.7-16 4.8 0 0-1.1 0-.2-1.1.8-1.1 1.7-2 3.1-4.5 1.4-2.6 4-8.3 4-14.1s-6.8-11.7-16.3-10.6c-9.5 1-18.6 3.7-29.5 7.9-10.9 4.2-20.4 13.1-21.6 20.5-1.3 7.4 6.8 11.7 6.8 11.7s9 4.6 10.2 7c1.2 2.5.3 4.8.3 4.8s-.8 2.5-4.8 4.7c-4 2.3-14.7 7.8-14.7 7.8s-13.4 7.4-33.9 9.2c0 0-18.6 1.6-29.3 2.1h-.4l-3.3 3.2-3.6-2.7c-10 .8-21.6 2.2-21.6 2.2s-26.1 3.7-50 11.1c-20.3 6.3-24.2 9.7-24.2 9.7s-4.3 3.6-.7 8.8c0 0 2.1 3.3 6.3 6.6 4.2 3.3 7.5 6.4 7 8-.5 1.6-1.8 2.3-1.8 2.3s-5.8 5.2-29.8 9.2c0 0-15.4 3-20.1-1.7-4.8-4.7-2.7-7.8-2.7-7.8s.3-1.1 3.8-3.2c0 0 5.8-3.6 3.9-10.5-1.8-6.9-12.9-15.5-25-15.4 0 0-14.1 0-49.9 4.6h-.2l-1.3 3.1-3.7-2.4c-2 .3-4.3.5-6.8.7-6.2.5-15.1-.4-26.2-3.6-11.1-3.3-18.1-9.3-19-13-.7-2.5.2-6.1.2-6.1s2.1-8 .8-14.6c-1.4-6.6-3.6-11.8-9.9-15.6-6.4-3.8-10-3.2-10-3.2s-5.7-.9-5.5 8.8c.2 9.7 1.4 13.7 1.4 13.7s1.1 3.4-.7 3.8c-1.8.5-4.5-2.2-4.5-2.2s-4.8-4.4-8.5-8.7l.6 5.9c1.4 1.8 3.5 4.1 6.5 7.2 6.6 6.8 8.7 2.6 8.7 2.6s1.5-4.3-.4-12.1-1.6-12.4 2-12.3c3.5.1 13.7 2.2 16.9 10.7 0 0 1.3 4 .1 9-1.2 5.1-1 9.6-.1 14s4.6 8.6 8.9 12c4.3 3.4 16.7 9.3 28.8 10.1 12.1.8 15.8.1 15.8.1l4.6-4.7L99 342c4.9-.6 12.9-1.4 22-2.4 15.4-1.7 25.7-3.3 35.3-1.9 9.6 1.5 12.6 8.9 12.6 8.9s.7 1.9-1.6 3.3c-2.1 1.4-4.6 3.3-5.8 5.4-1.2 2.1-2.5 6.5 1 12.4s13 9.7 21.2 8.7c8.1-1 20.3-4.1 27.5-6 7.8-2.1 14.8-5.9 15.7-12.1.9-6.1-9.3-14-9.3-14s-5-3.7-5.5-4.6c-.6-.9.6-1.2.6-1.2s5.8-1.4 8.3-2.5c2.4-1.2 9.3-3.9 20.4-7.4 11.1-3.5 34.1-7.6 34.1-7.6s12.7-2 28.5-3.3l3.8-4.3 2.9 3.8c2.5-.1 5.1-.3 7.6-.4 21.7-.8 32.5-3.4 44.1-6 11.6-2.6 27.8-12 30.3-13.9 2.4-1.8 7.5-4 8.5-11.9s-8.3-13.1-8.3-13.1-7.4-3.9-9-5.7c-1.6-1.8-.1-3.4-.1-3.4s4.2-9 17.6-14.3c13.4-5.3 22.4-6.7 28.1-7.4 5.7-.6 7.6 1.5 8.3 2.4.8 1 .8 3 .1 5-.6 1.9-2.7 6.3-3.9 8.5-1.2 2.2-3.2 7.4-1.9 9.9 1.2 2.5 5.1 3.6 10.1 2.7 5-.9 18.2-4.6 29.8-9.4 11.6-4.8 30.9-14.3 30.9-14.3s.1 0 .1-.1l.5-4.4 4.5 1.8c6.2-3.4 16.8-9.6 24.4-16 11.4-9.6 22.5-19.6 25.4-22.2 2.8-2.6 5.4-4.6 8-4.5 2.5.1 4.5 1.9 6 8.7 1.6 6.8 1.9 12.4 2.6 15.7.7 3.3 1.8 7.1 5.7 7.9 3.9.8 9.2-2.6 11.2-4.3 2-1.7 5.6-7.2 5.4-14.5 0 0 .4-9.8-4.6-19.1 0 0-2.1-3.7-2.9-4.7-.6-.7-1-1.5-.1-3.2.9-1.7 2.9-5 6.5-7 2.7-1.6 5.4-1.9 6.9-2.4 0 0 1.7-.4 3.8-1.6l-.8-2.5 1.8 1.9c2.5-1.5 4 .3 4 .3l-2.6-2.8zM5.6 295.5z"/><path class="st1" d="M553 71.4l1.1 5.1s-3.5 1.9-10.2 3.7c-6.8 1.8-13.3 4.9-13.3 4.9s-5.4 1.8-3.4 6.2c2.1 4.4 5.1 6.5 5.1 6.5s4.3 4.2 4.5 7.4c.2 3.2-1.2 4.7-4.7 6.5-3.4 1.9-6.5 2.3-6.5 2.3s-8.2 1.5-12.2-2.4c-4-3.8-4.8-10.1-4.8-10.1s-.3-5.3-7-7.6-14.9 2.6-14.9 2.6-6.5 3.4-13.4 7.9c-7 4.5-20.1 10-28.3 12.9l-.9 4.3-4.6-2.3c-8.7 3-19.9 6.8-19.9 6.8s-15.3 5.7-25.4 7c-10 1.4-12.3-.1-13.6-1.5-1.4-1.4.2-6.2.2-6.2s4.1-8.4 2.1-12.7c-2-4.4-15-5.5-15.2-5.5-.3 0-14.1-1.6-27.1 5.7-11.5 6.5-13 10-13 10s-3.7 5.7.7 11.3c4.9 6.4 11.5 7 11.5 7s6.2.5 7.7 2.3c1.4 1.8.5 3.8.5 3.8s-2.1 5.7-13.6 8c0 0-19.4 5.7-55.5 10.8l-3.5 3.5c-22.8 2.9-49.6 8.3-64.3 12.1-14.7 3.8-15.5 8-15.5 8-3.2 4.9.9 7.5.9 7.5s5 1.7 6.2 7.3c1.1 5.5-4.8 9.9-4.8 9.9s-7.1 5.9-17.7 7.7c-10.6 1.8-14.6 2.1-20.9-2.9-5.5-4.4-1.8-11.3 1.9-14 3.7-2.7 5.5-5.5 6-6.8.5-1.3.2-2.3.2-2.3l-3.5-3.3c-12.2-8.1-60.2.4-60.2.4l-8.2 1.8-4.1-2.7s-13.9 3.7-29.7 3.6c-16.5-.1-7.7-13-7.7-13s3.9-6.8 4.6-10.7c0 0 1.4-10.6-8.6-9.9-10 .7-12 9.4-12 9.4s-.7 4.9-.5 8.5c.1 3.6 0 11.2-4.5 15.6s-9.3 3-9.3 3-8.1-3.5-9.7-4.4c-1.7-.9-3.2-.9-4.6-.4-.1 0-.3.1-.4.2l-1.1 4.6.2-3.8c-1 1.1-1.7 2.6-1.7 2.6l.5 2-1.5 3.4v.2h.1S6 202 6.9 201l1.1-2.2-.3 1.5c.4-.3.7-.4 1.1-.5 1.7-.1 3.8 1 3.8 1s6.9 3.7 10 4.4c3.1.7 5.3-.4 7.3-1.8 3.2-2.2 7-6.8 8.5-11.2 1.4-3.9 1.7-14.6 1.7-14.6v.1s0-2.6-.1-3.2c-.1-.6-.5-3.4 1.3-4.8 1.7-1.4 2.8-2.1 7-2.2 4.2-.1 5.4 2.3 5.4 2.3s1.4 2 1.4 3.3-.4 2.1-.4 2.1-2.3 3.8-3 5.7c-.8 1.9-3.9 8.1-3 13.2.9 5.2 9 7.6 9 7.6s6.5 1.5 15.7.2l19-3.1 3.3-3.8 1.3 2.9c4.9-.9 13-2.3 21.8-3.1 14.1-1.4 29.2-1.6 35.5-.8 0 0 2.9.4 2.4 1.4-.4.8-2.6 2.5-2.6 2.5s-.8.5-4 4.1c-3.2 3.6-4.1 7.1-4.2 10.1-.1 3.1 3.2 12.1 14.7 14.6 11.6 2.4 24.8-2.1 24.8-2.1s8.7-1.9 17-10.2c8.6-8.6.1-18.9.1-18.9s-1.3-1.9-3.9-2.7c0 0-1.2-.3-.5-1.1.7-.7 2.3-3.9 8.3-5.5 6.1-1.6 24.2-7.3 67.4-13l1.7-3.8 5.3 2.8c16.5-2.3 27.7-4.2 47.7-8.8 0 0 18.5-3.3 22.4-10 2.2-4 6.3-9.4-.3-14.8 0 0-.8-1-4.8-1.9-4.1-.9-7.2-1.6-10.6-4-3.4-2.5-3.4-5.3-3.4-5.3s-.3-2.7 5.3-5.8c0 0 5.2-3.8 15.5-7.1 10.3-3.2 22.2-1.8 22.2-1.8s5 .6 4.2 3.9c-.9 3.4-3.7 9-3.8 11.9-.1 2.9.1 6.3 5.7 8.6s13.8 1.6 13.8 1.6 8.4-.4 22.2-4.9c13.8-4.5 28-9.6 28-9.6l-.6-3 5.9 1.1c3.6-1.4 8.6-3.3 13.9-5.7 11-4.9 16.2-9.1 21.2-11.9 0 0 11-6.8 17.6-6.6 0 0 1.5-.1 1.7 2 .1 2 .6 5 1.3 6.7.7 1.7 4.5 11.1 16.6 12.5 12.1 1.4 17.3-6.8 17.3-6.8s4.2-6.4-3-14c0 0-5.8-6.3-6-6.7 0 0-.6-1 1-1.4 1.7-.5 19.2-5.4 26-8.5 0 0 .1-.1.2-.1l-1.6-2.9 3.3 2.2c1.2-.6 2.7-1.5 3.3-2.4 1.1-1.7-.3-4.9-.3-4.9h.1l-2.4-3.3-3.7-1.6-.4.2-3.3 2.3" id="path4211_2_"/><path class="st1" d="M549.9 451.8c.1 0 .1-.1.1-.1l-.1.1z" id="path4328_2_"/><path class="st1" d="M533.6 466.8l-1 1.1c-3.9 4.4-5.9 6.1-5.9 6.1l-1.5 1.7-.1.1h.3s1.4 0 3.6-1.4c-.5.3-.9.4-1.1.5-1.1.1 2.6-3.3 2.6-3.3s3.6-3.8 5.9-6.8c2.3-3 .8-2.9.8-2.9s-.5-.1-2.4.8c.2.1 1.1 1.3-1.2 4.1z" id="path4334_2_"/><path class="st1" d="M550.4 451.3c0-.1.1-.1.1-.1s-.1 0-.1.1z" id="path4336_2_"/><g id="path4342_2_"><path class="st1" d="M534.6 462.7c-.1.1-.2.1-.3.1.1 0 .2 0 .3-.1z"/></g><g id="path4346_2_"><path class="st1" d="M531.2 464.6c.2-.1.4-.2.5-.3-.1.1-.3.2-.5.3z"/></g><g id="path4430_2_"><path class="st1" d="M533.8 463.1c-.1.1-.2.1-.2.2 0-.1.1-.2.2-.2z"/></g><g id="path4434_2_"><path class="st1" d="M532.2 464c-.1.1-.2.1-.3.2.1 0 .2-.1.3-.2z"/></g><g id="path4446_2_"><path class="st1" d="M533.4 463.3c-.1 0-.1.1-.3.1.2 0 .2-.1.3-.1z"/></g><g id="path4448_2_"><path class="st1" d="M533 463.5c-.1.1-.2.1-.3.1.2 0 .2 0 .3-.1z"/></g><g id="path4450_2_"><path class="st1" d="M532.6 463.8c-.1.1-.2.1-.3.2.1-.1.2-.2.3-.2z"/></g><g id="path4452_2_"><path class="st1" d="M533.9 463.1l.4-.2c-.2 0-.3.1-.4.2z"/></g><g id="path4454_2_"><path class="st1" d="M532.5 471.9s-.5.4-1.2.9c.4-.3.9-.6 1.2-.9z"/></g><g id="path4837_2_"><path class="st1" d="M102.9 49.7h.7c-1 2.9-4.8 6.9-6.5 9.6-.9 1.5-1.5 3.5-2.9 4.6.2.3 0 0 .3.3.5.3 5-.9 5.8-1.4.5.1.5.1.7.2.3.4-2.9 6-3.6 6.8v.2c1.2-.1 3.1-.4 3.9-1 2.3-1.8 2.9-5.7 4.6-8.2l-.3-1.2c-1.4-.3-4.2.1-5.3 1h-.3c.6-2.9 5.3-8.2 7-10.6 2.8-4 5.4-7.7 8.2-11.6 1.5-2 3.6-3.8 5.1-5.8 1.7-2.2 3.5-5.2 5.8-6.7v-.5h-1c-1.1.8-4.1 1.3-5.5 2.2.2.8.1.6.7 1-.9 2.3-3.7 4.1-5.1 6-2.3 3-4.8 5.9-7 8.9-.8 1-1.3 2.6-2.2 3.4-1.5 1.3-5.6 1.1-7.2 2.4h-.5c.4-2 5.5-8.5 7-9.9v-.2c-2.5.4-4.4 1.7-6 2.9.3.6.2.5.7.7-.9 1.5-2.2 2.5-3.1 3.8-1.2 1.7-1.9 3.7-3.1 5.3.1.3.2.5.3.7 1.4-.1 7.8-2.2 8.8-2.9zm211.7 32.6l3.6 1.2c1 0 2 0 2.6-.2-.1-4-2.2-5.6-3.6-8.2-.7-1.4-1.1-3.2-2.2-4.1.4-1.5 4.4-1.9 6-2.4 4-1.3 8.3-2.6 12.3-3.9 1.9-.6 4.1-.5 5.6-1.4.9.1 1.3.2 1.7.7.9 1.3 1.6 10.2 1 12.8-2.4 10.1-5.5 18-11.8 24.1v.2c2.4-.4 3.5-2.7 5.1-3.9 6.4-4.8 10.7-12 13-21 1.3-5.3-.9-10.4 1.2-14.9h-.3c-.4-1.2-6.6-3.4-8.4-3.4-1 1.1-2.4 2.5-3.9 3.1-2.2 1-5.1.7-7 1.9-1.8-.1-3.1-3.5-1.9-4.8-.1-.6-.1-.7-.3-1-1.5-1.2-5.2-1.1-7.7-1-.8.8-1.5.9-1.9 2.2h-.3c-.1.5.1.3.3.5.2.1 1-.1 1.5.2 2.7.3 2.7 3.5 4.1 5.1-.2.4-.1.3-.3.5-1 .8-7.9 2.8-9.4 3.1-1.1.3-2.5-.4-3.4-.5-2.1-.2-3.9 1-5.1 1.7.7 1 2.7.7 3.4 1.7 2.7 3.5 3.8 7.9 6.1 11.7zm48-3.4c1.1.6 1.1 2 1.7 3.1 1.2 2.3 2.7 5 3.4 7.5v1.9c.6 1.5 2.4 1.7 3.7 2.7.9-.1 1.3-.4 1.9-.7-.4-4.6-3.2-8.4-4.8-12-.5-1.2-1.3-2.8-1.4-3.8-.1-.7.4-1.1 0-1.7-.3-.8-.5-.5-1-1-.4-.2-.2-.1 0-.5.4-.9 1.3-1.7 1.7-2.7.8-1.9.8-3.5 2.4-4.6-.3-2.5-3.9-2.8-6.8-2.7-.4.3-1 .4-1.5.5.3.6.5.8 1.2 1 .7 7.1-4.2 13.5-7.5 17.8-1.3 1.7-3.4 2.8-4.6 4.6h-.2v.3c3.2-.6 10.1-7.2 11.8-9.7zm-288.7 60c-.5.1-.5.1-.7.2-1.7.9-4.7 8.7-8.2 6.5-1.8 0-1.9-.3-2.9-1 .1-2.3 4-6.5 5.6-7.5.2-3.7 1.1-7.6.7-11.1-.3-.1-.5-.2-.7-.2-.9-.3-1.6 1-2.2 1.7-1.8 1.8-4 3.7-5.3 5.8-2.1 0-8.6-.1-9.9.7h-.7c.6-1.6 5.3-6.7 3.9-8.9-.1-.3-.2-.5-.3-.7-4.4 0-9.7 7.8-11.1 11.1-.7 1.6-.7 3.5-1.7 4.8v.3l9.9-1.2c1.3-.3 3 .3 3.9-.2h3.4c.6-.7 1.2-1.5 1.7-2.2 2-2.1 4.7-4.3 6.3-6.7h.7v3.4c-1.9 1.7-4.7 4.2-5.5 6.8v1.9c-1.2 5.4 1.4 8.1 6 7.7 3.1-2.8 8.1-5.2 7.5-10.8-.4-.4-.1-.2-.4-.4zM46 134.5h-1.5c.7-2.7 3.3-5.7 6.5-5.8v1.2c-1.1 1.5-2.3 2.9-3.4 4.3-.6.1-1.2.1-1.6.3zm518.9 1.2c-1-2.5-1.8-4.4-2.9-6.5-1.8-3.5-3.7-8.6-8.9-8.7-1.3 1.1-2.6 2-3.4 3.6-4.7 10.7 5 22.8 9.4 28.7 1.6 2.1 3.4 4.3 5.8 5.5-.6 8.4-7.7 11-15.4 7.7-5.5-2.4-9.8-7.5-13.2-12-1.1-1.5-2.9-2.8-4.1-4.3-1.1-1.5-1.9-3.1-3.1-4.3v-.3h-.5c.7 2.6 2.2 5 3.2 7.2 4.1 9.4 9.3 15.9 17.1 21.4 3.7 2.6 9.9 6.7 15.2 2.9 9.2-6.6 4.6-31.5.8-40.9zm-.7 11.6c-.6.6-3.3-2.6-3.9-3.1-2.7-2.7-8.1-7.4-5-12h1.2c2.4 2.5 4.5 4.8 6 8.2.8 1.8.9 4.9 1.9 6.5-.1.4 0 .2-.2.4zm-159.7 48.2v-2.4c1.1-4.9.9-10.7 1.9-15.7 1.5-6.6-.6-13.1 6-14.7.1-.7.4-.9 0-1.5-.1-.4-.1-.3-.2-.5-.3-.2-.2-.2-.7-.3-1.9 1.4-6.9 2.3-9.4 2.9-1.9.5-3.9.1-5.3 1-.3.1-.5.2-.7.2l.3 1.5c2.7.9 5.2-.2 6.5 2.2.8 1.6.7 7.1.3 9.2-1.5 7.1-.9 15.2-2.5 22.1-.5 2.4.2 7.1-.9 8.9v.5c-1.5-.7-2.5-2.6-3.4-3.9-2.2-2.8-5.3-5.1-7.5-8-1.3-1.7-2.7-3.7-4.3-5.1.2-4.6 1.6-9.5 2.7-13.7.8-3.2.8-6.1 2.4-8.4.9-1.3 3.1-2.2 4.6-2.9 0-.6 0-.9-.3-1.2-.1-.3-.1-.5-.2-.7-3.3.5-6.1 2.1-9.2 2.9-2.8.8-5.5.6-7.7 1.7.1.6.1.7.2 1 .1.3.2.5.3.7 8.5-.5 7.2 4.1 5.5 10.6-.5 2-.2 4.7-1.2 6.3v.5h-.3c-1.7-2.6-4.3-5.2-6.5-7.5l-2.7-2.4c-.6-.8-1-1.9-1.7-2.7.1-2.7 2.3-3.3 4.3-4.1-.1-1.1-.3-1.3-.7-1.9-6.3.9-11.7 4.5-18.8 4.8v.3h-.3c0 .6 0 .9.2 1.2v.5c1.4.2 3.4-.3 5.1.3 2.6.9 4.9 3.9 6.5 6 2.4 3.1 6.1 5.8 8.4 8.9 1.3 1.7 2.6 3.9 4.3 5.1-.3 4.2-1.4 8.7-2.5 12.5-.5 2-.2 4.5-1.2 6-.2.4-.1.2-.3.5-2.3-4.4-6.7-7.7-9.6-11.5-5.6-7.4-11.8-14.1-17.6-21.4 0-1 .1-1.6.5-2.2.5-1.4 2.2-2.7 3.9-2.9.1-.8.2-.8-.2-1.5-.1-.2-.2-.5-.3-.7-4.9.8-9.3 3-14 4.3-2.4.7-5.6.4-7.5 1.7-.3.1-.5.1-.7.2.2.9.4 1.1.7 1.7 1.9 0 3.9-.6 5.8 0 4.8 1.5 8.3 6.9 11.1 10.6 1.2 1.6 3.1 3 4.3 4.6 5.2 6.9 11 13.1 16.1 20 2 2.7 4.7 5 6.5 7.9 1.1 0 1.3-.2 1.9-.5 1.3-5.7 2-11.4 3.7-17.1.7-2.6 1.7-5.7 1.9-8.7 2 .7 3.6 3.7 4.8 5.3 3.8 5 9.1 9.1 12.5 14.5 1 0 1.1-.2 1.7-.5 1.4-8.1 2.4-16.3 3.5-24.5zM24.6 236.7c-.1 15-.9 38.2 10.8 41.4 4.3 1.2 6.6-1.7 7.9-3.7 4.8-7.1 3.5-21-1.2-27-2.1.2-5 5.1-6 6.8-.5-.1-.5-.1-.7-.3-.6-.3-.5-.4-1-.7-.4-5.7.8-11 1-16.4 6.3.6 11.8 4.2 18.3 4.6 0-1.1 0-2.7.5-3.4-.1-.6 0-.7-.3-1-.9-.7-5.8-1.9-7.2-1.9v-.1h-.2c.9-7.2-1.2-12.7-6-14.7-2.7-.5-5.5-1-8.2-1.5-1.4-.5-2.1-1.6-3.1-2.4-.4-2.3-.8-4.9 1-6.3-.1-.9-.2-1-.7-1.5v-.3h-.3c-.8 1.4-1.5 3-1.9 4.8-1.4 6 1.9 11.1 5.5 12.3 2.5.4 4.8.8 7.3 1.2 1.9.8 2.7 2.3 4.1 3.6-.1 3.1-3 3.5-5.5 2.7-3.9-1.3-8-2.2-12-3.6-1.1-.4-2-1-3.4-1.2-.2 1.6-.4 3.1-.5 4.6 3.4 1.1 6.8 2.1 10.1 3.1-.1 8.5-3.5 18.7.7 25.3.5.1.9.2 1.2.5 4.8-.3 5.7-4.1 8.2-6.8 2.1 5 .5 13.7-4.1 15-2 1.4-4.9-.4-6-1.5-4-3.7-4.8-9.2-6.3-15.4-.5-2.1.2-6.3-.7-8 0-2.5.6-6.9-.7-8.2v-.2l-.6.2zm578.6 40.5c-.9-4.1.4-9-.5-12.8v-3.9c-.6-2.8-.4-6.4-1-9.2-1.2-5.3-.1-11.7-2.2-16.2-1.2-.3-2.4-.5-4.1-.5-.6.6-1.1 1-1 1.7.5 2.2 3.3 2.6 4.1 4.8.1 1.1.1 2.1.2 3.1.8 3.4.7 7.8 1.4 11.3v2.9c.4 1.8 1 6.3.5 7.7-.9 2.5-3.6 4.7-5.3 6.5-4.6 4.6-10 10.4-18.1 11.3-.2.4-.1.3-.3.5.1 3 2.9 2.4 4.8 3.6.5-.1 1-.2 1.4-.3.8-.5 1.2-1.5 1.7-2.2 1.2-1.6 3.5-2.4 4.6-4.1h.3c0 7.3.2 15.6.2 22.6h.7c1.7-7.1 1.5-15.9 1.4-24.6 3.2-3 5.2-7.3 8.4-10.1v-.5h.3c0 7.6.2 15.4.2 23.1 0 2.5-.6 8.4 0 9.4v1.4h.5c.7-2.6.8-6.2 1.5-9.1V290c1-3.3 1-9.6.3-12.8zm-432.4 15.4c-2.1-.9-4.7-2.8-6-4.6-3.9-5.3-8.1-17.9-5.3-27.4 2.3-7.7 7.3-12.9 15.4-15 4.1-1 8.5.4 11.1 1.7 7.4 3.8 10.5 9.2 12.8 18.1 2.9 11.5-.8 22-8.4 25.5.5 4.7 1 9.3 1.5 14 2.7-.1 5.2-.6 7.5-1.2 3.8-1 7.7-1.1 11.3-1.9 2.6-.7 6.4-.1 8.4-1.5.5-1-1.5-8.2-1.9-9.9-.4-1.4-.1-2.8-.7-3.9v-.5c-.6.1-1.1.2-1.7.3.1 7.3-5.1 6.3-10.8 7.7-2.9.7-6.4 1.6-9.6 1.7v-3.1c.3-.5 4.5-2.3 5.3-2.9 2.8-2 5.7-5 7.5-7.9 1.2-2 2.2-4.7 2.9-7 .9-3 1-7.1.3-10.1-.5-2.1-.3-3.7-1-5.5-2.6-7.2-8-12.5-14.9-15.4-3.1-1.3-6.7-1.4-10.4-2.2-3.3-.7-9.2.8-11.6 1.5-11.6 3.4-19.5 9-23.1 20.2-1.4 4.4-1 10.6.3 14.7 2.8 9.5 10.8 18.4 22.7 18.5v.3c.4.5.4 1.6.7 2.2-.1.4-.1.3-.2.5-1 .7-2.5.4-3.8.7-2.9.8-12.1 3-14.2 1-1.3-.5-2.3-2.2-2.4-3.9-.6 0-.9 0-1.2.3h-.5c.9 4.7 1.8 9.3 2.6 14h.3v.3c8.4-1.5 16.9-2.9 25.3-4.4l-3.6-13.2c-1.2-1.3-3.4-1.2-4.6-1.7zM583 265.9c.5 1.3 1.6 3.5 2.7 4.3.5.4.8.3 1.2.7 8 .7 11.2-13 8-21-.6-1.4-3.1-5.4-5.5-3.9h-.5c.2-.4.1-.2.2-.5 0-1.2-.1-1.6-.5-2.2-.5-.1-.9-.2-1.4-.2-.2.2-.1.1-.5.2.2 1.5.7 1.5.7 3.1-3.9 3.7-7.2 12.2-4.4 19.5zm2.7-12.8c.5-1.3 1.6-2.1 2.4-3.1.5-.1.5-.1.7-.3 1.8 0 2.3.4 3.4 1 1.9 4.3 2.1 11.9-.9 15.2-.5.5-1.4.7-1.9 1.2-5.2-.4-5.6-9.6-3.7-14zM473.9 348c-2.7-1.7-3.1-10.2-4.1-14-2-7.4-2.9-15.2-5.1-22.6-1.4-4.8-3.2-9.8-2.6-15.7.8-.9 1.4-2 2.4-2.7 1.4-.9 3.5-1.4 4.6-2.7.2-.3-.1-.8-.3-1.5-2.8.4-5.3 2.1-7.7 3.1-4.8 2.1-9.5 3.3-14.5 5.3-1.5.6-3.1 1.7-5.1 1.9v1.5c.2.1.3.2.5.3.3.3 6.3-2.4 8.2-.7 2.2.8 1.9 3.6 3.1 5.3-.4 3.7-4.1 9.5-5.5 12.7-3.5 8.1-7.1 15.8-11.1 23.4-1.5 2.9-3.3 8.1-5.3 10.4v.2c-1.3-1.8-1.2-6.4-1.9-8.9-2.1-7.5-3.5-15.8-5.8-23.1-.4-1.4-1.9-7.8-1-9.1.3-3.3 5-4.8 7.7-5.8-.1-.6-.1-1.1-.2-1.7-4.3.7-8.7 2.9-12.5 4.4-3.6 1.4-6.9 1.9-10.6 3.1-1.8.6-3.9 1.7-6 1.9v.3h-.3c.1.7.1 1.1.5 1.4 1 .7 6.3-2.1 8.4-.5 3.4 1.2 3.5 6.6 4.6 10.1 3 9.6 4.4 20.3 7.2 30.1.7 2.5 2.4 10.3.7 12.3-.9 2.7-5.4 3.8-8 4.8.1.5.1 1 .2 1.4 3.7-.6 7.1-2.3 10.4-3.4 6.5-2.2 12.6-4 18.8-6.3-.1-.6-.2-1.1-.3-1.7-2.7.7-4.7 1.5-8.4 1.4l-1.5-1.2c-.4-1.3-.8-2.6-1.2-3.8.3-3 4.2-8.6 5.5-11.3 4.1-7.9 7.7-15.8 11.3-24.1 1.4-3.2 4.6-7.8 5.1-11.3 1.1.7.8 2.7 1.2 4.1.8 2.9 1.3 6 2.2 9.1 1.7 6.1 2.4 12.6 4.1 19 .7 2.4 1.6 6.4.5 8.9s-5.1 4.1-7.7 5.1c.1.5.2 1.1.5 1.4 0 0 5.5-1.8 6.5-2.2 6.8-2.9 13.6-5.8 20.5-8.4-.1-.6-.2-1.1-.3-1.7-1.5.7-5.4 2.9-7.7 1.5zm113.9 20.2c-.9.8-2.2 1-3.1 1.7-3.1 2.2-6.3 5.9-8.4 8.9-1.7 2.5-3.2 5.1-4.8 7.7-.7 1.2-.9 2.5-1.7 3.4v.5c2.1-.4 3.3-1.7 4.8-2.7 4-2.5 7.6-4.7 11.3-7.5 1.8-1.3 3.1-3.3 5.1-4.6.2-2.9.8-5.1-.5-7.2-.8-.1-1.6-.2-2.7-.2zm-2.9 8.7c-1.5 1.1-2.9 2.6-4.3 3.6-1.3.9-2.8 1.4-3.9 2.4h-.3c.8-2.5 5-6.7 7-8.2 1.1-.8 2.4-1 3.4-1.7h1c.2.3.2.3.5.5-.2 1.8-2.2 2.5-3.4 3.4zm-520.6 9.4c-1-3.1-1.7-6-2.7-8.9-.5-1.5-.4-3.2-1.2-4.4v-.7c1.6.6 4.1.5 5.5 1.5h1.2c-.3-1.3-.5-3.4-1.2-4.4-.7-1.2-5.4-1.2-6.7-2.2-1.9-1.5-3.7-5.8-5.1-7.9-3.4-5.4-7.9-11.2-13-15-2.7-2-4.6-4.1-9.4-4.1-.6.4-1.2.8-1.7 1.2-1.1 4.8.9 13.7 3.6 15.9v.5c-1.1-.3-2.4-1-3.1-1.7h-.3c0 1.4.3 3.2 1 4.1.3 1.2 2.2 2.2 3.4 2.4 1.5 6.3 3.6 12.8 5.8 18.6 1.7 4.6 2.7 9 4.5 13.5 1 2.2 3.2 3.8 3.9 6h.7c-.5-2-1.7-4-2.4-5.8-2.2-5.3-4-10.9-5.8-16.3-1.2-3.6-2-7-3.1-10.4-.4-1.3-.3-2.6-1-3.6v-.2c1.7.3 2.6 1.2 3.9 1.7 2.8 1.2 5.5 1.7 8.4 2.9 2.2.9 4.8 2.1 7.5 2.4.3 2.2 1.6 7.9 2.7 9.4v.7c-3.7-2.5-3.6-6.1-10.1-5.5-.3.4-.8.7-1.2 1-.6 1.5-.7 4 0 5.5 1.6 4 6.5 12.1 10.6 13.2 1.6 1.1 3.9-.3 4.6-1.5 1.5.8 1.8 4.2 2.4 5.8 1.3 3.4 3.2 7.8 6.3 9.4v.3h.5c-.4-2.7-1.9-5.2-2.9-7.5-2.2-5.2-3.9-10.6-5.6-15.9zm-7-19.5c-2.6-.2-4.7-1.2-6.8-1.9-5.4-2-10.4-3.7-15.2-6-.6-2.2-4.6-10-2.4-12.7.2-.3.4-.5.5-.8.5-.1.5-.1.7-.2 7.5.8 14.9 9.8 18.6 14.8 1.5 2 2.6 4.9 4.6 6.3v.5zm3.9 20.9c-.7.9-1.4 1.8-2.2 2.7-.6.5-1.4.7-1.9 1.2-4.1-.1-4.3-4.2-6-6.8 0-2.4.9-2.4 1.9-3.6.6 0 .7 0 1-.2 3.7 0 4.6 1.7 6.8 3.1.2 1.5.5 2.1.4 3.6zm141.6 37.1c-1-1.7-3-2.1-4.3-3.4-.4-.1-.3 0-.5-.2 3.1-1.6 6.4-3.4 9.6-4.8.9 1 4.9 4.8 6.3 4.1.3-.1.5-.1.7-.2-.1-1.4-.2-2.7-.3-4.1-3-3-7.5-5.5-12.5-6.5v.2h-.2c.6 1.7 2.4 3.2 3.9 4.1v.7c-2.9.4-5.4 1.8-7.9 2.7-1.8.6-3.9.5-5.3 1.5h-.7c1.1-2.9 4.5-5.3 6.3-7.7 3.5-4.7 6.3-10.5 11.8-13.2-.1-2.2-6.5-6.8-8.9-5.3-.6.3-.2-.1-.5.5-.4.9.9 2 .5 3.4-.5 1.9-5.1 10.6-6.3 11.5v.3c-2.5-.9-4.4-3.2-6.8-4.3.4-2.2 2.3-3.9 3.4-5.6 2.8-4.2 5-8.1 9.1-10.8-.1-3.2-5.2-6.5-8.7-6.5 0 1.5.8 2.3.5 3.6-.9 3.9-2.7 7.9-4.1 11.3-1 2.2-1.4 4.9-2.9 6.5-.3.2-3 0-3.6-.5-.9 0-1.8 0-2.4.2v.5c4.1 3.9 8.4 5.3 14 7.7-.8 4-4.8 6.7-6.8 9.6-1 0-1.8-.1-2.4-.5-.6.1-.6.1-1 .2.1 3.6 3 6.6 6 7.2 2-2.2 4.5-3.3 7.5-4.6 2.7 2.9 3.5 6.9 4.6 11.6.5 2-.3 4.2.3 6 .9 3.1 2.6 4.1 4.1 6.3h1.7c1.1-5.7-1.5-11.1-2.9-15.7-.4-1.9-.8-3.8-1.3-5.8zm380.7-40.7c-1.5 1.3-3.5 1.8-5.1 2.9-2.4 1.7-4.6 4-7 5.8-1.1.8-2.7 1.6-3.4 2.7-1.2 1.8-.9 4.9-2.4 6.5v1c1.9-.7 2.8-2.9 4.3-4.1 1.9-1.4 3.4-3.3 5.3-4.6 1.1-.8 2.5-1.3 3.6-2.2.8.2.7.2 1.2.5-.1 6.1-3.4 10.4-5.3 15-.6 1.3-.7 3.4-1.7 4.3-.4.5-1.4.6-1.9 1-1.6 1.8-3.2 3.5-4.8 5.3-1.5 2.1-2.2 4.9-3.9 7 0 .7 0 1.3.2 1.6.3.2.7.4 1 .5 3.1-2.9 6.1-5.4 8.7-8.9 4-5.5 6-12.4 8.9-19 1.8-4.2 4.5-8.2 4.3-14.2-.3-.3-.5-.6-.7-1l-1.3-.1zm-16.9 38.1v.2h-.2c.4-2.9 2.6-3.7 3.6-5.8h.5c-.3 2.4-2.1 4.6-3.9 5.6zM206.5 426c-.5 2.1 4.6 6.8 6.3 8 .8.6 1.9 2 3.2 1.4.6 0 .8-.1 1.2-.3.3-.6.7-1.5.3-2.2-.4-2.9-8.2-6.3-11-6.9zm23.1 18.6c.4.2.8.1 1.2-.2.9-.7.4-1.9 1-2.9 1.4-1 3.7-.7 5.5-1.2 5-1.3 10.7-1.2 16.2-2.4 2.6-.6 6.9 1 8.9-.2.3-.1.5-.2.7-.3-.1-3.2-6.2-4.5-9.4-3.6-1.4.4-3.1 1.3-4.6 1.7-1.1.1-2.2.2-3.4.2-.4-3.9-2.3-7-2.4-11.1 3.6-.1 8.2-.5 10.6-1.9-.1-1.2-.3-1.2-.7-1.9-2.7-.7-7.5-.8-9.6.7-.6-.1-.9-.1-1.2-.3-1.4-1.7-.7-5.2-1.9-7v-.9c2.6-.6 6.8-1 8.2-2.9.2-.3.1-.1.2-.5-.2-.2-.3-.4-.5-.7-3.8-1-5.4-.3-8.6 1-1-3.3.2-5.8-3.1-6.8.7-1.2 3.1-1.2 4.6-1.7 2.3-.8 5-1.8 7-2.9.2-.4.1-.3.3-.5-.1-1.2-.5-1.2-1-1.9-3.5-.3-6.3.1-8.2 1.9h-.5c.3-1.8 1.4-4.4 2.4-5.8.7-1 2-.9 2.4-2.2h.3v-.3c-.5-.6-1-1.3-1.5-1.9-1.1-.8-2.8-.9-3.9-1.7-1.6 0-3.1 0-4.1.5.1.9.6 1.5.7 2.2.7 2.5-1.7 10.1-2.7 11.3-.8 1-9.4 4.1-11.8 3.4-.6-.2-2.2-1-2.7-1.4-.2-.3-.1-.1-.3-.5 3.4-3.2 5.9-10.4 10.6-11.8l.3-1.2c-1.2-1.2-6.9-7.2-9.9-5.3-.3.1-.5.1-.7.2 0 2.1 1 3.6.5 5.8-1.1 4.3-3.6 9.5-5.8 13-1.3 2.1-4.2 4.4-4.3 7.5 3.9-.4 4.9-4.5 7.9-5.6.9.8 1.8 1.6 2.6 2.4 1.3 1.9 1 4.7 1.7 7.2 1.1 5.2 2.3 10.4 3.4 15.7.1 2.6.3 5.1.5 7.7.7 2.5 2.6 6.5 5.1 7.1zm7.7-18.3c.2 2.2 1.6 8.6 2.7 10.1v.5c-2.9.6-5.9 1.5-9.2 1.5-.5-3.5-2.1-6.5-2.2-10.1 3.7-.1 5.6-1.6 8.7-2zm-14-20c.4-.6 6.8-1.7 7.5-1.2 2.6 1.2 1.6 5 3.1 7.2-.5 1.2-6.4 3-8.2 3.1-.3-2.5-.7-7.7-2.4-9.1zm11.1 9.1h.3c.5 2.2.7 5.9 1.9 7.7-.9 2.1-6.2 2-8.2 3.1-.9-.5-2-6.5-1.9-8.2 1.8-.1 6.6-1.7 7.9-2.6zm-41.7 13.8c-.4.8-.3 2.2-.7 3.1-2.1 5.1-2.8 6.2.5 11.1 1.4 0 1.6-.2 2.4-.7.9-4 1.1-11.7-2.2-13.5zm274.7 1.4c-7-1.7-12.9 1.7-20.3 1.2-.7-.7-1.2-1.2-1.7-2.2-5.1.1-10.7 11.5-5.5 14.9 2.7 1.9 10.6.8 14 0 1.9-.4 4.8-.9 6.3.3 2 1.5 1.7 7.2 1 10.4-.8 5.9-1.6 11.9-2.4 17.8-.7 3.6-1.4 7.2-2.2 10.8 3.7 0 7.2-3.8 8.2-6.5.6-1.6.3-3.1.7-4.8 1.3-5.1 1.5-11.1 2.7-16.4.8-3.5.3-6.7.9-9.9.5-2.4.9-10.3.3-12.5-.5-1.2-1.4-2.1-2-3.1zm-329.8 72.8c-.8-.6-1.4-1.7-2.2-2.4-2.9-2.6-6.3-5-9.4-7.2-2.6-1.8-6.1-2.9-8.4-5-.1-.5.8-1.8.3-3.2-2.1-5.5-9.6-11.7-14.5-14.7-2.2-1.4-5.9-2-7.9-3.4-1.5-.1-2.3-.1-2.7 1-.6 1.4 1.3 3.2 1.9 4.1 1.7 2.3 3.5 5 5.8 6.7 1.7 1.3 3.6 2.4 5 3.9h.7c-.9-2.6-3.7-4-5.8-5.5-1.9-1.4-2.7-3.9-4.3-5.5.1-.8.2-.7.5-1.2 6.7.1 10.9 6.2 14 10.1 1.3 1.8 3.5 2.8 3.6 5.8-.7 0-1.3 0-1.7-.3h-.7c1.2 3.2 5 2.9 7.7 4.6 5.4 3.3 9.7 8.6 14.5 12.7 1.6 1.4 4.4 2.8 4.8 5.3-3.3-.2-5.6-2-7.7-3.4-3.7-2.4-9.7-6.7-12.3-10.1-.5-.6-.7-1.6-1.2-2.2-.7-.7-1.6-.9-2.2-1.7h-1c-.2 2.5 2.5 4.3 4.1 5.8 5 4.6 10.3 8.8 16.6 12 2.3 1.2 6.4 3.2 8.9 1.7-.3-3.4-4.2-6.2-6.4-7.9zm148.3 15.9c-12.3-8.4-30.4-16.9-51.3-16.4-1 .6-3.1.1-4.3.5-1.8.5-2.8 1.4-4.1 2.2 0 5.9 8.8 9.1 13.7 10.4 3 .7 5.5-.6 7.2-1.2 1.3-5-4.7-5.7-7.5-8.2h-.5v-.2c18.5-.7 32.3 4.5 42.9 12.3 2.6 2 5.7 4.7 7 7.9.5 1.2.7 3.2 0 4.1-1 2.7-4.2 2.5-7.2 3.2-7.1 1.6-16.8-2.4-20-5.5-.6 1.2.3 2.9-.7 4.1-1.1 2.9-4.8 2.2-8.2 2.9-5.6 1.2-14.3-1.7-17.6-3.8-.9-.7-1.6-1.8-2.5-2.5-.1-.6-.1-.8-.3-1.2.5-.5 1.1-1.2 1.5-1.7 6.9-.5 10.4-.2 14.5 3.6-.1.5-.1.5-.3.7-.4.9-1.5 1.1-2.9 1v.5c2.6 0 3.6-.4 5.1-1.2.1-.5.2-1 .3-1.4-.8-.9-1.4-2-2.4-2.7-4-2.6-12.1-3.9-16.6-.9-.7 3.4 1.4 5.3 3.4 6.8 3.9 3 7.2 4.7 12.8 6.3 1.8.5 3.4 0 5.3.5 1.7.4 4.7.5 6.5 0 3.1-.8 7.3-4 3.8-7.7v-.2c1.8.6 3.3 2.4 5 3.4 4.6 2.4 12.3 4.4 19.3 2.9 3.4-.8 7-.8 7.9-3.9 1.1-1.7-.4-4.1-1-5-2.1-4.5-5-7.1-8.8-9.6zm-44.5-11.1c.9.6 1.4 1.8 2.2 2.5 0 .6 0 .9-.3 1.2-1.6 4.2-10.4 1.1-12.5-.5-.7-.5-1-1.5-1.5-2.2.1-.5.1-.5.3-.7.7-1.9 2.5-1.2 4.1-2.2 3 0 5.8.6 7.7 1.9zm223.6 2.4h-2.4c-1.6 1.3-4.2 1.4-6 2.4-1.6.9-3.5 2-5 3.2-1.3.9-2 2.5-3.2 3.6.1 1.2.1 1.4 1 1.7.3.2.1.1.5.3.3-.3.5-.4.7-.7.2-.2-.2-.7-.3-1.4 2.4-2.3 4.1-3.6 7.5-5.1.9-.4 2.7-1.4 3.9-.7h.5c-.2 2.4-5.6 9.7-7.2 10.9v.7c4.4-1.2 7.4-10 10.4-13.2-.1-.6-.1-.7-.3-1l-.1-.7zm-19.3 17.9c-1.4 1.3-4.9 1.4-6.5 2.6h-.2c.6-.9 1.8-1.3 2.4-2.2.5-.6.7-1.4 1.2-1.9-.1-.5-.1-.5-.3-.7v-.5c-7-1.3-18.8 4.8-22.4 8-.9.8-1.5 2.1-2.4 2.9 0 .7.1 1 .2 1.4 4.3.3 12.3-2.4 13.2-5.8.2-.2.1 0 0-.3v-.5c-2.9-.2-6.8.5-8.7 2.2h-.2c1.6-2.5 7.4-4.5 10.6-5.5 1.1-.4 3.4-.9 4.3-.2.2.1.5.1.7.2-.6 2.4-4 5.1-6.3 5.8v.5c3.7-.9 7.1-2.5 10.4-3.9 2.3-.9 4.8-1.1 6.7-2.4 1.4-.9 6.2-7.3 6.5-9.1-5.4.8-5.9 6.3-9.2 9.4zm-19.1 4.8v.7c-.5.3-.8.9-1.2 1.2-1.3.7-2.9.6-4.1 1.4-.6-.1-.7 0-.9-.3h-.3c.7-2 4.7-2.9 6.5-3zm-100.4 22.6c.1-.2.2-.5.3-.7-6-.3-11.9-.5-17.8-.7-.8.5-1.9.2-2.9.5-1.2.4-2.6.9-3.6 1.5.2.4.1.2.3.5 1.5 1.2 9.9 1.2 11.6 0h.5v-.5c-2.6-.8-7.2 1.2-9.1 0h-.5v-.3c6.4-.5 13.6-.3 20.3-.3-.7.5-2 .3-2.7.7-.3.1-.5.2-.7.3v.5c1.5.2 2.9.5 4.3.7l.2.2c-2.1 1.4-7.6.9-9.6-.2v-.5c-1.1-.5-6 .5-7 .7-.8.2-1.7-.1-2.2.3-1 .1-1.1.2-1.7.5.2.8.2.7.5 1.2 1.6.4 4.2.4 6 1v-.2h.3v-.3c-.9-.4-3.4-.2-4.3-.7h-.5c.8-.6 8.7-1.7 10.1-.7.4.1.3 0 .5.2-1.3.2-2.6.5-3.9.7.1.4 0 .2.2.5.4.3 1.2.3 1.9.3-.3.4-.4.6-.7 1 .1.1.1.3.3.5 3.4 0 6.3-.3 9.1-.9 1.7-.4 3.8.3 5.1-.5h1.9v-.5c-3.3 0-11.5-.4-13.5 1h-.7l.2-.3c1-1.1 2.9-.6 4.6-1 2.7-.7 7.1-1.7 9.4 0 .7.4.3-.1.2.7.7 0 1.1 0 1.5-.2h1.7v-.5c-2.2-.5-5.4-1.5-7.3-2.6-1-.9-.5-1.7-2.3-1.9zM81.4 111.6c-.5 2-1.7 3.6-2.4 5.3-1.6 3.7-3.1 7.5-4.6 11.1-1.3 3-2.1 7.9-3.9 10.3v.5c2.5-.5 4.3-3 5.8-4.6 3.7-3.9 11.7-13.5 11.6-20.7-.4-.4-.7-1-1-1.5-1.5-.2-3.4-.4-5.5-.4zm1 10.2c-1.1 1.8-1.7 3.6-2.9 5.3-1.1 1.6-2.8 2.8-3.9 4.3h-.3c.3-1.8 1.3-3.3 1.9-4.8 1.4-3.4 2.4-6.8 4.1-9.9 1 0 1.7.1 2.2.5.6.4.2-.1.5.5.5 1.2-1.1 3.1-1.6 4.1zm427.6-74c-2.5-2.6-4.4-5.7-7-8.2v-.2c-1.3.5-5.5 4.2-6.3 5.3-1.6-.6-2.4-2.2-3.6-3.1-4.1-3.1-8-7.1-15.2-7-.9.7-2.2.7-3.4 1.2-3.2 1.4-6.6 4.2-7.9 7.5-1.5 3.7 0 9.1 1.1 11.8 2.4 5.5 6.3 10.2 9.6 14.7 2.8 3.7 5.9 7.6 11.1 8.9 5.8 1.5 8.6-5.4 10.9-8 2.2-2.6 7.2-3.3 8.9-6.8.7-1.3.2-3.7-.2-4.8-1.1-2.6-6.5-9.9-8.7-11.3.1-1.5.8-1.5 1.4-2.4 1.5.7 2.1 2.9 3.2 4.1 1.4 1.6 3.3 2.4 4.8 3.9 2.3 0 3.7-.6 4.8-1.7h.2c-.4-1.6-2.5-2.8-3.7-3.9zm-13.7 26c-4.2 1-6.3-1.8-8.6-4.1-5.7-5.7-9.6-12.7-14-19.8-1.5-2.4-5.4-6.9-3.4-10.4h1c1.2 1.8 3.3 3.1 4.6 4.8 3.6 4.8 8 8.9 11.6 13.7 2.2 3 4.6 5.7 6.8 8.7 1.1 1.5 1.9 3.4 3.4 4.6-.5 1.2-.9 1.7-1.4 2.5zm3.6-17.1c1.9 2.7 4.6 4.2 4.6 8.9-.7.7-1 1.4-2.2 1.7-.3.2-.1.1-.5.3-3.4-5.7-8.3-10.4-12.3-15.7-1.3-1.7-3.3-3.1-4.6-4.8-2.2-2.9-4.8-5.3-7.2-7.9-.7-.8-1-1.6-1.9-2.2.2-.5.2-.4.5-.7 4.1 0 6.1 2.8 8.4 4.6 5.9 4.3 10.9 9.8 15.2 15.8z"/></g><g><path d="M160.2 7.8c-5 1.7-8.5 3.6-8.5 3.6l-1.1.6-4.1-5.9c.1.1-.9-.2-4.3.6-4.7 1.1-10.6 4.6-12.9 7.7-2.3 3.1-2.7 4.7-2.7 4.7l-.1.4-.3.3c-11.1 9.7-20.1 13.5-20.5 13.7l-.4.1c-2.1.2-3.5 1.3-3.5 1.3-8.6 7.2-19.1 19.7-19.2 19.8-.1.1-.2.3-.5.7-.3.6-.9 3.1-.9 3.6 0-.1.1.1.2.1l1 .7-.9 1.4C74.2 71.3 71.1 74 71 74.1l-1.1 1-.9-1.2c-.4.2-2.4 1.4-3.7 2.2-2.8 4-9.7 15.6-9.8 15.7l-.3.5-1 .3c-.3.1-1.3.8-1.8 1.1l-.6.4-.6-.1-3.4 1.9c-19.2 31.7-32.5 66.2-39.5 102.6l.6 2.2-1.7 3.9C4.3 221.9 2.7 240 2.7 258c0 11.7.7 23.5 1.9 35l2.3 3.3-1.4 3.6c5.5 41.5 19.1 80.7 40.3 116.8l1.4 1.1.7 2.5c57.4 94.5 157.5 151 268 151 79 0 154.4-29.5 212.4-83 57.6-53.1 93-125.2 99.7-202.9l-1.5-3.7 2.1-3.4c.4-7 .6-13.8.6-20.2 0-27.4-3.5-54.6-10.6-80.9l-2.7-3.4.8-3.3c-10.2-35.1-27.4-69.6-49.7-99.7l-2.7-1.2-2 1.4c.5 2.3 1 4.3 1 4.3l1.2 4.5-3.4-3.2c-2.9-2.7-10.3-12.7-10.6-13.1-7.1-7.9-12.9-16-12.9-16.1l-.5-.7.8-1.2-1.2-3.6c-2.6-5-12.3-12.9-12.4-12.9 0 0-3.5-2.4-5.7-3.3-1.5-.6-3.1-.8-4-.9l-1.6 1.9-1-.7c-6.5-4.3-26.2-20.1-28.6-22l-2.7-.8c-.8.4-2.2 1.1-4.7 1.8-3.9 1-7.2 1.5-10.2 1.9l-.8-.1c-1.2.2-1.7.4-2 .5l-5.4 8.7c0 .2 0 .5.2 1s1.3 1.6 2 2.1c0 0 3.5 2.6 6.1 4.3 2.4 1.5 3.3 2.7 3 3.7l-.2 1-1 .1c-7 .6-9.1-.3-12.3-1.8-3.5-1.8-5.6-5.7-6.3-7.4-.7-1.6-2.3-3.1-2.9-3.6-2.8-1.6-9-1.9-16.2-.6-6.8 1.2-16.3 4.3-17.8 4.9-1.6.6-10 3.4-14.4 4.6-2.4.6-4.5 1.3-6.4 1.8-1.4.4-2.7.8-3.8 1.1-2.6.7-21.8 6.4-28.1 8.3-6.9 2.1-11.3 2.8-11.5 2.9-10.7 1.1-14.2-.8-14.5-1-2-.8-2.4-3.3-2.3-4.5v-7s-.2-1.9-1.5-2.6c-1.7-1-4.2-1.4-9.2-1.6-4.8-.2-10 .3-12.6.8-4.4 1-7.8 2.8-10.1 5.5-3 3.3-2.7 5.8-2.7 5.9 0 .1.2 4.3.6 7.4.2 2.2 2 2.9 2.1 2.9l2.4.9-2 1.5c-.2.1-5 3.5-19.2 7.6-9.3 2.7-16.4 4-20.1 4.5l12.9 6.5 55.5 8.8 5.8 95.8-52.7-.8c.1.2.1.5.2.7l.5 1.5-1.6.2c-23.6 3-50.2 8.4-64.9 12.2-13.3 3.5-14.8 7.1-14.8 7.2l-.2.4c-2.4 3.8.2 5.6.5 5.8.1 0 5.6 2 6.9 8.2 1.4 6.4-5.1 11.2-5.3 11.4-.2.2-5.9 4.9-14.8 7.3l2.3 37.7-104.7-34 4.3-94.1 45.9-106.7 23.6-9.2 6.9-11.2c-.7.1-2.2.4-5 1.4z" fill="none"/><path class="st1" d="M207 205.1c-1.3-6.2-6.8-8.2-6.9-8.2-.3-.2-2.8-2-.5-5.8l.2-.4s1.4-3.7 14.8-7.2c14.7-3.8 41.3-9.3 64.9-12.2l1.6-.2-.5-1.5c-.1-.2-.1-.5-.2-.7h-2.9c-23.3 3-49.2 8.3-63.7 12.1-13.7 3.5-16.2 7.6-16.7 8.9-2.9 4.8-.4 8.2 1.7 9.5.2.1 4.4 1.6 5.4 6.3 1 4.7-4.3 8.6-4.4 8.7-.1 0-5.3 4.3-13.3 6.6l.2 2.8c8.9-2.4 14.6-7.1 14.8-7.3.5-.2 6.9-5 5.5-11.4z"/><path class="st1" d="M621.1 176.1l-2.3-3.1.7-2.7-.1-.4c-10.3-35.7-27.8-70.6-50.5-101.2l-.2-.3-4.8-2-4.7 3.2.2.9c-3.1-3.8-6.7-8.7-6.9-8.9-5.9-6.5-10.7-13-12.3-15.2l.5-.8-1.6-5c-2.9-5.7-12.7-13.7-13.2-14.1-.1-.1-3.8-2.6-6.3-3.6-2.6-1-5.4-1.2-5.5-1.2h-.7l-.9 1c-7.6-5.3-27.4-21.2-27.6-21.3l-4-1.3-.8-.1-.6.7s-.9.7-4.3 1.6c-3.7 1-7 1.4-9.9 1.8l-.7.1c-3.1.4-4 1.5-4.2 2.3l-5.3 8.5-.2.4c-.1.2-.2 1.2.3 2.7.6 1.5 2.6 3.1 3 3.4 0 0 3.5 2.6 6.1 4.3-4.1.1-5.6-.6-7.7-1.7-2.8-1.4-4.6-5-5.1-6.1-1.1-2.5-3.5-4.5-3.8-4.7-5.1-2.9-14.5-1.7-18.3-1.1-6.9 1.2-16.5 4.4-18.3 5.1-1.6.6-9.8 3.4-14 4.5-2.5.6-4.6 1.3-6.5 1.8-1.4.4-2.6.8-3.7 1.1-2.4.6-17.2 5-28.2 8.3-6.7 2-11.1 2.8-11.1 2.8-9.6 1-12.7-.6-12.9-.7-.9-.4-.8-1.9-.8-2v-7.2c0-.1-.3-3.4-2.9-4.9-2.1-1.2-5-1.7-10.4-2-5-.2-10.6.3-13.3.9-4.9 1.1-8.8 3.2-11.6 6.3-3.9 4.4-3.3 8-3.3 8s.2 4.2.6 7.4c.2 1.8 1 3 1.8 3.8-2.4 1.3-7.5 3.6-16.6 6.2-13.3 3.9-22 5.6-22.1 5.6l-4.3 1.5 4.1 1.6c3.7-.5 13.7-3.4 23-6.1 14.2-4.2 19-7.5 19.2-7.6l2-1.5-2.4-.9c-.1 0-1.9-.8-2.1-2.9-.3-3.1-.6-7.3-.6-7.4 0-.1-.3-2.6 2.7-5.9 2.4-2.6 5.8-4.5 10.1-5.5 2.5-.5 7.8-1 12.6-.8 5 .2 7.5.7 9.2 1.6 1.3.7 1.5 2.6 1.5 2.6v7c-.1 1.3.3 3.7 2.3 4.5.4.2 3.8 2.1 14.5 1 .2 0 4.6-.8 11.5-2.9 6.3-1.9 25.4-7.6 28.1-8.3 1.1-.3 2.4-.7 3.8-1.1 1.8-.6 3.9-1.2 6.4-1.8 4.3-1.1 12.8-3.9 14.4-4.6 1.5-.6 11-3.8 17.8-4.9 7.3-1.3 13.4-1 16.2.6.6.5 2.1 2 2.9 3.6.7 1.6 2.8 5.6 6.3 7.4 3.2 1.6 5.3 2.4 12.3 1.8l1-.1.2-1c.2-1.1-.7-2.2-3-3.7-2.6-1.7-6-4.3-6.1-4.3-.7-.5-1.8-1.6-2-2.1-.2-.5-.2-.8-.2-1l5.4-8.7c.2-.1.8-.4 2-.5l.7-.1c3-.4 6.3-.8 10.2-1.9 2.6-.7 4-1.3 4.7-1.8l2.7.8c2.4 1.9 22.1 17.7 28.6 22l1 .7 1.6-1.9c.9.1 2.5.3 4 .9 2.2.9 5.7 3.3 5.7 3.3.1.1 9.8 8 12.4 12.9l1.2 3.6-.8 1.2.5.7c.1.1 5.8 8.2 12.9 16.1.3.4 7.7 10.4 10.6 13.1l3.4 3.2-1.2-4.5s-.5-1.9-1-4.3l2-1.4 2.7 1.2c22.3 30.1 39.5 64.5 49.7 99.7l-.8 3.3 2.7 3.4c7 26.2 10.6 53.5 10.6 80.9 0 6.4-.2 13.2-.6 20.2l-2.1 3.4 1.5 3.7c-6.7 77.7-42.1 149.8-99.7 202.9-58 53.5-133.4 83-212.4 83-110.5 0-210.6-56.4-268-151l-.7-2.5-1.4-1.1c-21.2-36-34.8-75.3-40.3-116.8l1.4-3.6-2.1-3.1c-1.3-11.5-1.9-23.3-1.9-35 0-18 1.5-36.1 4.5-53.5l1.7-3.9-.6-2.2c7-36.4 20.3-70.9 39.5-102.6l3.4-1.9.6.2.6-.4c.5-.4 1.5-1 1.8-1.1l1-.3.3-.5c.1-.1 7-11.7 9.8-15.7 1.3-.8 3.3-2 3.7-2.2l.9 1.2 1.1-1c.1-.1 3.2-2.9 10.6-12.8l.9-1.4-1-.7c-.1-.1-.2-.2-.2-.1 0-.6.6-3.1.9-3.6.2-.4.3-.6.5-.7.1-.1 10.7-12.5 19.2-19.8 0 0 1.4-1 3.5-1.3l.4-.1c.4-.2 9.4-4 20.5-13.7l.3-.3.1-.4s.4-1.6 2.7-4.7c2.4-3.1 8.3-6.7 12.9-7.7 3.4-.8 4.4-.5 4.3-.6l4.1 5.9 1.1-.6s3.4-1.9 8.5-3.6c2.8-1 2.5 0 3.2-.2l-.3-.5-1.1-2.2c-.8-.2-1.2-.3-2.7.2-3.6 1.2-6.4 2.5-7.8 3.2l-2.7-3.9-.4-.4c-.9-.9-3.2-1-6.8-.1-5.3 1.2-11.8 5.1-14.5 8.8-2 2.7-2.8 4.5-3.1 5.4-9.8 8.5-18.1 12.4-19.3 12.9-2.8.4-4.6 1.7-4.7 1.8-8.8 7.4-19.4 19.9-19.4 19.9-.2.2-.6.6-1 1.4-.4.8-1.4 4.2-1.2 5.3.1.4.2.7.4 1-4.9 6.6-7.8 9.7-9 11-.4-.1-.9-.1-1.3-.1-1.4.4-4.4 2.3-5 2.7l-.4.4c-2.5 3.5-8.5 13.4-9.8 15.7h-.1c-.6.2-1.4.7-1.9 1.1L51 91l-5.1 2.8-.2.3c-19.6 32.2-33 67.2-40.1 104.1l-.1.3.5 1.9-1.4 3.4C1.6 221.6 0 239.9 0 258c0 11.9.7 23.9 2 35.7l1.9 3-1.2 2.9v.4c5.6 42 19.3 81.9 40.9 118.4l1.2 1.1.5 1.8.1.3C103.2 517.1 204.3 574 315.8 574c79.6 0 155.7-29.7 214.2-83.7 58.2-53.7 93.9-126.5 100.6-205v-.3l-1.3-3.1 1.5-2.6.2-.6c.4-7.1.7-14.1.7-20.7.1-27.8-3.5-55.3-10.6-81.9z"/></g></svg>